<svg width="181" height="160" viewBox="0 0 181 160" fill="none" xmlns="http://www.w3.org/2000/svg">
<path d="M144.724 57.7084C149.265 56.9431 152.737 60.1968 152.232 64.8065C153.444 62.5867 156.657 62.5643 157.966 64.7036C158.279 65.2093 158.596 67.0309 158.695 67.1069C158.811 67.1964 160.112 66.0507 161.408 66.4804C162.19 66.7399 163.258 68.7718 163.91 68.5704C164.138 68.4988 164.916 65.5897 166.726 68.4675C166.82 68.6152 166.632 69.3536 166.726 69.5103C166.887 69.7788 168.357 69.931 168.603 70.5531L126.374 70.656C126.642 69.2328 128.845 69.4342 129.292 69.1925C129.793 68.924 130.316 67.3173 131.795 66.8966C133.274 66.4759 134.374 67.1517 134.508 67.1069C134.776 67.0085 135.017 64.7662 135.446 64.077C136.599 62.2242 139.522 61.9333 140.975 63.5534C140.961 61.2306 142.199 58.1336 144.729 57.7039L144.724 57.7084Z" fill="#DDDDDD"/>
<path d="M141.18 15.3165C145.247 14.6542 148.17 17.1918 147.642 21.3719C149.233 19.5011 151.709 20.1098 153.17 21.8955C153.381 22.1506 153.296 22.907 153.483 23.0457C153.725 23.2247 154.149 22.4639 154.319 22.4192C157.801 21.4748 157.809 24.827 158.073 24.9254C158.122 24.9433 158.685 24.3168 158.909 24.2989C160.2 24.1914 162.587 25.3461 162.766 26.9081L127.835 27.011C128.058 25.3282 131.218 26.0801 131.379 25.9682C131.455 25.9145 131.652 24.7061 131.902 24.4018C133.216 22.7906 134.99 22.2715 136.805 23.4619C137.019 23.4485 136.608 20.1411 136.702 19.5996C137.006 17.8004 139.401 15.6074 141.184 15.3165H141.18Z" fill="#DDDDDD"/>
<path d="M29.6118 29.101C30.5637 29.0473 33.0352 29.9111 33.7815 30.5645C34.5279 31.2179 35.0954 33.0663 35.2429 33.0708C35.301 33.0708 35.5245 32.3547 36.0787 32.2339C39.4797 31.5044 38.6529 36.3603 38.997 36.6199C39.0372 36.6512 39.5914 36.0246 39.8327 35.9933C43.8952 35.4607 43.1086 38.7502 43.5868 38.9158C43.8818 39.0187 45.7901 38.0968 46.1923 39.8556L15.0156 40.1689C15.6502 39.5871 18.0502 37.0853 18.5596 36.8257C19.4758 36.3603 20.3473 36.8526 20.4367 36.8257C20.7897 36.7183 22.3629 30.9091 25.6522 35.5726C25.5762 32.9634 26.403 29.2711 29.6163 29.101H29.6118Z" fill="#DDDDDD"/>
<path d="M81.3177 0.00868463C85.0673 -0.201664 85.8718 3.45034 85.9075 6.48025C86.6717 5.58963 87.9499 5.15551 89.0359 5.64333C90.3051 6.2162 89.3219 7.57675 91.7487 6.48025C92.5889 6.86067 91.9766 8.00192 92.5844 8.35996C92.7095 8.43157 94.8279 7.98849 94.2514 9.82345L68.0801 9.92638C67.5438 7.54094 71.2666 8.21674 71.4186 8.04668C71.4811 7.97507 71.5214 6.6727 71.8342 6.16697C73.0856 4.16194 75.2799 2.91328 77.1525 5.01676C77.6396 2.64028 78.4843 0.165327 81.3222 0.00420913L81.3177 0.00868463Z" fill="#DDDDDD"/>
<path d="M24.1394 76.8025C26.879 76.1401 26.6243 78.7583 27.0578 78.8926C27.1069 78.9105 27.6566 78.454 28.0991 78.6822C28.7113 79 28.9482 79.64 29.1404 79.725C29.6007 79.9264 31.1292 79.8951 31.2275 79.9354C31.5984 80.092 33.3101 81.3944 32.6889 81.8151C31.8621 82.3745 15.1654 81.4615 12.7744 81.7121C12.8727 81.278 15.0224 79.9219 15.1743 79.9354C15.2816 79.9488 15.7106 80.5619 15.8 80.5619C18.9686 80.5396 18.1016 78.8165 19.1385 78.4719C19.2681 78.4316 21.6725 78.4405 21.8512 78.4719C22.1149 78.5211 22.1775 79.3043 22.4769 79.0984C22.5976 79.0134 22.8434 77.1158 24.1439 76.8025H24.1394Z" fill="#DDDDDD"/>
<path d="M153.054 81.084C153.233 81.0751 153.532 81.0303 153.577 81.187L148.156 83.4829L152.12 82.646C150.972 83.3307 141.962 86.3606 141.694 87.032C141.175 88.3299 142.766 90.402 143.258 91.5209C142.1 90.9525 139.624 89.8247 140.13 88.388C136.121 91.6954 139.008 87.2871 138.981 87.032C138.95 86.7366 135.584 84.1318 135.227 83.4829C135.124 82.7265 136.934 84.3467 137.207 84.4228C137.904 84.6107 139.365 84.5123 140.125 84.6331C140.433 84.6823 141.3 85.4655 141.376 85.47C141.497 85.47 143.034 84.3601 143.463 84.2169C144.894 83.7335 152.259 81.1198 153.054 81.084Z" fill="#868686"/>
<path d="M9.17471 49.773C9.77804 50.2788 14.0773 53.2818 14.3902 53.3221C15.1812 53.4295 21.6659 49.2315 23.6681 50.0863L20.4369 51.6527L25.5451 50.7129C23.8916 51.4558 15.8739 53.5369 15.0159 54.5752C13.76 56.0924 15.9052 60.0935 15.6415 60.2144C14.7432 58.6793 12.6338 58.093 13.1388 56.2446C9.62609 59.4088 12.035 55.6717 11.9903 55.0944C11.9456 54.441 9.08979 50.9635 9.17471 49.7686V49.773Z" fill="#868686"/>
<path opacity="0.5" d="M151.294 98.0146C150.695 97.6208 149.671 100.74 151.294 100.624L151.191 98.8471L152.232 100.727L151.294 98.0102C151.723 98.5562 152.724 100.646 152.858 100.727C152.929 100.772 154.471 100.789 154.525 100.727C154.788 100.44 154.078 97.7327 155.15 100.727C155.419 99.0127 155.481 100.61 155.776 100.727C155.87 100.763 157.662 100.754 157.756 100.727C157.823 100.704 157.912 100.754 157.966 100.727C158.788 99.9257 158.668 98.9455 158.382 97.9072C158.949 97.8491 158.838 99.1022 159.423 98.3234L158.9 96.757C160.326 97.9117 159.861 99.0709 160.777 100.727C161.658 100.861 161.215 99.9346 161.193 99.4737C162.31 102.441 162.408 98.8829 163.07 100.727L163.485 99.2633C163.7 100.279 163.311 100.651 164.527 100.727C164.634 100.047 165.322 99.1872 165.778 99.0574C166.064 98.9769 165.304 100.351 166.091 99.5811L166.404 97.8043L166.819 99.2678C167.597 98.2116 167.208 97.8356 166.819 96.7615C168.008 97.6834 168.54 98.6099 169.322 100.105L169.112 97.8088C169.644 98.5472 169.613 99.9615 170.676 99.1648C168.933 100.977 173.407 100.879 173.702 100.731C174.323 100.414 174.877 98.0281 174.015 97.4955C175.709 99.0485 175.078 96.9808 176.415 96.1394C173.912 98.6054 177.393 103.685 175.999 98.2295C177.353 99.8362 176.526 101.018 178.712 100.32C178.877 100.266 178.627 101.371 179.753 99.6929C179.239 101.604 180.575 100.226 181.004 100.53C172.701 119.13 157.099 135.604 139.509 146.055C102.102 168.275 59.4529 163.37 26.6941 135.403C15.8341 126.134 5.71155 113.442 0 100.53L1.77425 100.427L1.25136 98.6502C2.26585 99.7467 1.41225 100.749 2.81556 99.1738C2.84684 99.6124 1.89491 100.32 2.50272 100.74C2.82896 100.964 3.48593 99.6124 3.75407 100.74V99.6974L4.37975 100.74C4.99649 100.772 4.33506 98.14 5.21548 100.74C6.14059 100.986 6.38639 99.8675 6.46684 99.9033C6.61432 99.9749 6.34617 100.897 7.92825 100.74V99.2767L8.55392 100.74L9.1796 99.4871L9.59523 100.74L10.0109 99.2767C10.4444 100.637 11.0835 101.729 11.0522 99.4871C11.8745 101.949 12.7326 99.8585 11.5751 98.5472C12.2454 98.2384 12.2052 99.8227 12.7236 99.6974C12.889 99.6572 13.7873 97.0121 14.3906 96.7749C14.1984 98.1489 12.3884 99.4737 13.5549 100.745C13.9482 99.2857 14.328 101.398 15.2219 100.745C15.6018 100.467 15.0833 98.2384 15.8476 100.745L16.0576 99.0753C16.1604 102.087 19.7089 100.892 18.9759 97.8222C19.6687 104.303 21.2239 98.216 22.73 96.1528L21.1658 99.599L21.4787 100.749L22.52 97.8267C21.4787 102.745 23.74 100.064 23.9814 100.123C24.0618 100.141 24.2316 100.991 25.1299 100.436L24.4015 98.0325L25.4428 99.7019L26.4841 98.0325C26.4662 98.9008 26.8237 99.9302 27.3198 100.749C27.5433 99.0261 27.7533 100.745 27.9455 100.749C28.1377 100.754 29.0092 97.3523 29.4069 100.749C29.7376 99.3931 31.5923 102.347 31.2839 99.2857C31.6147 102.745 33.2548 98.3951 32.8481 97.303C33.876 98.3727 33.6168 96.7525 34.6224 96.1528C33.7464 97.9744 33.3889 98.2653 34.6224 100.123L34.9352 97.9296C35.9855 99.3976 33.8179 100.794 36.0838 100.749C36.2715 100.749 36.1061 100.123 36.2938 100.123C36.3564 100.123 37.0491 100.763 37.3352 100.749C38.0413 100.718 38.5195 100.132 38.5865 100.123C38.6401 100.114 39.2703 100.745 39.6278 100.539C40.0881 100.275 39.5787 99.3215 39.7306 98.9724C39.8826 98.6233 40.0613 99.5945 40.5663 98.9724C41.125 98.2832 41.5987 96.8331 42.3406 96.1528C41.201 98.2787 42.2289 98.7128 42.9663 100.749L43.3819 99.7064L44.1104 100.646L43.7975 98.8695C44.3606 99.2544 44.2981 100.44 44.8388 100.749C45.0131 100.848 45.8578 100.02 46.0902 100.749L46.9259 97.8267L47.6544 100.646L48.3829 99.2902L48.5929 100.754L50.68 96.7839L49.2186 100.754C49.9739 100.073 50.2241 100.754 50.4699 100.754C50.6711 100.754 50.823 100.127 50.8856 100.127C51.0152 100.127 51.7883 102.016 51.7213 99.0843L52.557 100.754L52.9727 98.8739L52.8699 100.024L53.3928 99.5005L53.6028 100.543C54.2732 99.2186 55.5424 102.132 55.6899 99.2902L56.1055 100.543C56.4452 99.2588 55.2698 98.1758 54.957 96.9942H55.167C55.6407 97.5447 56.0832 98.4577 56.2083 99.1872C56.8116 99.5229 56.7178 98.14 56.9368 98.2474C57.1736 98.3637 56.9547 98.9411 57.0396 99.0843C56.7312 98.9948 56.32 100.516 56.9368 100.754L57.0396 99.0843C57.1558 99.2767 58.4071 100.687 58.6038 100.754C58.6529 100.772 58.9479 100.337 59.0194 100.337C59.4037 100.337 59.5825 100.767 59.6451 100.754C59.9266 100.691 60.454 99.1917 60.6864 98.8739L60.3735 100.651L61.102 99.7109L61.3121 100.754C61.5176 100.369 61.5445 99.9167 61.6249 99.5005C61.8171 100.055 61.7545 100.485 62.3534 100.754L62.5634 99.2902L62.979 100.754L62.769 98.4577C63.8058 99.3976 63.1087 100.727 64.7488 100.651L64.436 99.2946L65.2717 100.758L66.1074 99.505C65.6471 100.915 68.5431 101.318 68.1945 99.2946L68.4046 100.548C69.6559 99.1693 67.913 97.8222 67.4661 96.4751L69.4459 99.0843C70.2503 98.4532 69.2984 96.211 69.4459 96.1618C69.7632 96.0544 69.9598 97.8446 71.0101 96.6854C69.9062 97.8893 71.2514 99.1604 71.7386 100.548L72.3642 99.505C71.8101 101.953 73.0838 100.123 73.2 100.132C73.2625 100.136 73.4368 100.78 73.6156 100.758C73.7765 100.74 73.6648 100.342 73.8256 100.342C74.21 100.342 74.3888 100.772 74.4513 100.758C74.8223 100.673 74.7195 99.9615 74.867 99.9212C74.9966 99.8899 75.8502 102.204 76.1183 99.2946L76.5339 100.758C77.0881 100.006 77.0658 98.8874 76.6367 98.1489C77.9283 99.769 78.1518 96.8689 79.2422 95.9559C79.0992 97.7864 76.9585 98.7979 77.9909 100.758L78.2009 99.2946C78.7372 99.6303 78.3261 101.103 79.3495 100.651L78.621 98.2474C79.1707 98.5741 79.5506 100.678 79.6623 100.754C80.583 101.367 81.669 99.9346 81.3293 98.8739C81.5662 101.206 82.0667 100.239 83.2064 100.337C83.3807 100.351 83.1393 100.754 83.622 100.754C83.6801 100.754 83.6309 99.4155 84.0376 100.754L84.4532 98.4577C84.5739 101.215 85.1013 101.054 87.6844 100.234V67.6573L64.6416 76.3219C62.7869 76.483 61.8573 75.664 60.9903 74.1289C58.9434 70.4993 50.5817 50.1582 49.7281 46.354C49.1337 43.7 50.1303 42.8273 52.3336 41.6547L101.963 22.4414L104.05 22.6518L127.196 33.93C127.674 34.3597 127.768 34.8833 127.719 35.4964C127.621 36.6959 117.132 55.8018 116.144 56.482L92.6854 65.7732L92.8954 100.44L93.4183 99.2902C93.2753 100.901 94.4507 100.754 95.711 100.543C96.2205 99.9257 95.8004 99.4468 95.6082 98.7665C96.9623 100.982 96.9802 97.1911 98.4238 96.3632C98.3612 97.1151 95.9568 100.279 97.1724 100.749C97.6148 100.919 98.3478 100.328 98.4238 100.333C98.9064 100.351 98.683 100.772 98.8394 100.749C99.0986 100.713 99.1209 100.23 99.1522 100.226C99.3176 100.203 99.9388 101.693 99.6751 98.8695C100.591 101.08 100.931 100.548 103.014 100.749L103.326 100.226L102.911 98.762L103.639 99.9123L104.265 98.2429C105.172 98.9232 103.371 100.718 105.413 100.646L105.101 99.0798L106.352 100.749L105.829 98.3458C108.189 101.635 107.121 95.7366 107.393 95.7366L107.706 98.5562L108.747 97.5134C107.898 99.5363 107.997 101.506 110.727 100.749C111.04 100.664 111.304 99.9033 111.353 99.9123C111.514 99.9525 111.366 100.601 111.769 100.749C111.925 100.807 113.507 100.351 113.856 100.539L114.271 99.496L114.481 100.749C115.094 99.3528 115.429 98.5114 115.317 96.9898L115.733 99.2857L116.671 97.7193C116.613 98.4711 115.384 101.864 116.881 100.226L116.778 99.0753C117.306 99.3125 117.006 100.633 117.404 100.745C119.692 101.398 117.427 99.223 117.82 98.4488L119.071 100.745C120.224 100.709 119.612 100.185 119.907 99.2812L120.533 100.745C120.971 99.6303 121.181 100.803 121.368 100.745C121.467 100.713 121.471 98.9724 121.266 98.762L121.788 100.539L123.455 97.1956C123.156 98.9008 122.544 98.856 123.978 100.226L122.727 99.599C122.517 101.206 125.087 100.852 124.917 99.496L125.44 100.646C125.377 99.3752 125.94 98.1265 126.794 97.2001C126.95 98.0594 124.966 100.199 125.958 100.749C126.083 100.816 126.454 99.7511 127.625 100.749C128.103 100.436 127.737 98.5696 128.251 100.749L128.876 98.8695C128.076 101.309 130.896 101 131.169 99.496L131.585 100.749C131.647 99.3931 132.443 98.2787 133.252 97.2001C131.67 99.2946 133.94 103.314 133.042 98.4532C133.493 98.8516 133.596 100.503 134.083 100.749C134.114 100.763 134.463 100.32 134.499 100.333C135.629 100.669 135.915 100.883 137.417 100.543L138.043 99.2902C137.524 102.441 139.37 99.8541 137.94 98.14C139.589 100.105 139.263 97.0121 140.755 95.947C140.688 97.1509 138.347 99.6885 139.088 100.749C139.915 101.931 139.96 98.8158 139.924 98.6591L140.55 100.749C140.925 100.772 140.885 99.0127 141.176 100.749C142.543 100.682 141.01 99.4244 141.176 98.4532C141.555 98.6323 141.837 100.158 142.217 100.123C142.65 100.082 142.588 98.6949 143.155 98.7665L143.258 100.749L143.468 99.0798C143.334 101.479 146.856 101.465 146.387 98.8695C146.918 99.3752 146.047 100.154 146.802 100.749C146.892 100.821 148.996 100.803 149.095 100.749C150.369 100.078 149.215 97.5402 148.572 96.6765L150.136 98.8695L150.972 97.406C151.303 97.5313 151.253 97.9923 151.285 98.0325L151.294 98.0146Z" fill="#868686"/>
<path d="M9.80046 111.379C10.9043 111.894 17.8136 112.569 18.0371 113.362C18.0907 113.55 17.6572 114.033 17.827 114.404C17.1075 114.637 16.4058 114.762 15.6371 114.718C15.3779 114.7 11.8652 114.154 11.673 114.091C11.1859 113.93 10.2161 112.126 9.58594 111.795L9.79599 111.379H9.80046Z" fill="#FEFDF9"/>
<path d="M51.3008 112.632C57.5039 113.272 63.4166 115.545 69.1282 117.958L51.3008 112.632Z" fill="#FEFDF9"/>
<path d="M60.6862 120.777C60.9589 120.795 61.1734 120.992 61.4147 121.091C60.9723 121.869 60.3555 121.995 59.7477 121.301C59.6449 121.041 60.6326 120.777 60.6862 120.777Z" fill="#FEFDF9"/>
<path d="M74.2411 117.645C74.3082 117.645 75.1484 118.28 75.3897 118.374C73.7629 119.479 73.0345 117.707 74.2411 117.645Z" fill="#E5E4E2"/>
<path d="M125.747 129.339C126.914 129.308 126.252 131.541 124.809 129.863C125.233 129.917 125.693 129.344 125.747 129.339Z" fill="#E5E4E2"/>
<path d="M36.0791 131.219C36.2131 131.219 37.0623 131.716 37.0176 131.948L36.2891 132.472L35.3506 131.742C35.2389 131.505 36.0344 131.219 36.0791 131.219Z" fill="#FEFDF9"/>
<path d="M81.3298 127.665C81.3834 127.665 82.246 128.139 82.2683 128.189C82.5052 128.766 80.8918 128.914 80.6013 128.399C80.5745 128.354 81.2806 127.674 81.3298 127.67V127.665Z" fill="#E5E4E2"/>
<path d="M72.1541 121.821C73.0927 121.865 72.9899 123.226 71.9441 123.074C71.0547 122.944 71.7564 121.803 72.1541 121.821Z" fill="#FEFDF9"/>
<path d="M41.0843 122.03C42.9435 122.209 40.3335 124.009 40.1458 122.76C40.1279 122.639 41.0262 122.021 41.0843 122.03Z" fill="#FEFDF9"/>
<path d="M90.2989 124.116C90.357 124.116 90.9156 124.779 91.2374 124.846C89.5525 126.162 89.3246 124.116 90.2989 124.116Z" fill="#FEFDF9"/>
<path d="M67.1483 133.305C67.2019 133.323 67.3583 134.021 67.5639 134.142C66.5539 134.2 66.7371 134.674 65.7897 134.039C65.736 133.797 67.0723 133.287 67.1438 133.309L67.1483 133.305Z" fill="#FEFDF9"/>
<path d="M54.4295 135.604C56.3646 135.385 54.2552 137.587 53.701 136.334C53.6384 136.191 54.3803 135.609 54.4295 135.604Z" fill="#FEFDF9"/>
<path d="M84.6678 137.69C85.0388 137.667 86.0443 138.862 84.8779 138.943C83.8679 139.01 83.993 137.73 84.6678 137.69Z" fill="#FEFDF9"/>
<path d="M155.776 128.292C155.829 128.252 156.947 128.802 156.924 129.022C156.83 129.854 154.573 129.187 155.776 128.292Z" fill="#E5E4E2"/>
<path d="M116.152 129.966C116.193 129.966 116.631 130.275 116.881 130.279C115.978 132.213 114.602 129.993 116.152 129.966Z" fill="#FEFDF9"/>
<path d="M96.5506 124.116C98.2445 123.995 95.63 126.264 95.7149 124.326C96.059 124.505 96.506 124.12 96.5506 124.116Z" fill="#E5E4E2"/>
<path d="M60.0607 144.166C61.7679 143.867 60.6998 145.182 60.2707 145.209C60.1724 145.214 58.6574 144.413 60.0607 144.166Z" fill="#FEFDF9"/>
<path d="M81.5393 120.357C81.5839 120.339 82.2722 120.509 82.4778 120.46C82.2856 122.107 80.3594 120.885 81.5393 120.357Z" fill="#FEFDF9"/>
<path d="M26.0684 127.666C27.1633 127.719 26.6226 128.073 26.2785 128.708L25.1299 128.185L26.0684 127.661V127.666Z" fill="#FEFDF9"/>
<path d="M109.69 138.112C110.253 138.085 110.794 139.011 109.9 139.155C108.671 139.352 109.028 138.143 109.69 138.112Z" fill="#FEFDF9"/>
<path d="M127 123.7C127.058 123.7 127.737 124.327 127.938 124.43C126.218 125.562 126.115 123.7 127 123.7Z" fill="#FEFDF9"/>
<path d="M76.1184 144.793C77.1597 144.552 77.0301 146.033 76.3285 146.046C76.1765 146.046 75.1888 145.013 76.1184 144.793Z" fill="#FEFDF9"/>
<path d="M57.1378 116.391C57.8708 116.539 57.4462 117.904 56.9278 117.644C56.454 117.407 56.235 116.208 57.1378 116.391Z" fill="#E5E4E2"/>
<path d="M154.109 116.181C155.504 115.998 154.784 116.597 154.319 117.224C153.756 116.817 152.675 116.369 154.109 116.181Z" fill="#FEFDF9"/>
<path d="M100.515 130.799C100.734 130.866 100.439 132.043 100.099 132.052C98.7632 132.087 99.6034 130.517 100.515 130.799Z" fill="#FEFDF9"/>
<path d="M62.7688 125.58C63.3721 125.53 63.6582 126.792 62.7688 126.833C61.5755 126.886 62.5543 125.597 62.7688 125.58Z" fill="#FEFDF9"/>
<path d="M47.547 125.369C48.7045 125.307 47.8464 126.694 47.547 126.622C47.0732 126.506 46.6576 125.418 47.547 125.369Z" fill="#FEFDF9"/>
<path d="M33.992 123.91C34.0456 123.91 34.5059 124.487 34.9305 124.434C33.983 124.966 34.2557 125.244 33.2635 124.644C33.2009 124.501 33.9428 123.915 33.992 123.915V123.91Z" fill="#FEFDF9"/>
<path d="M88.6277 152.102C88.6813 152.093 89.5439 152.37 89.5662 152.415C90.1606 153.731 86.7775 152.455 88.6277 152.102Z" fill="#FEFDF9"/>
<path d="M147.226 135.394C147.959 135.219 148.549 136.24 147.642 136.437C146.735 136.634 146.596 135.542 147.226 135.394Z" fill="#E5E4E2"/>
<path d="M160.156 121.611C161.304 121.485 161.009 122.3 160.366 122.864L159.427 122.134C159.409 122.076 160.111 121.615 160.156 121.611Z" fill="#FEFDF9"/>
<path d="M45.2541 136.858C46.0988 136.29 46.5949 137.664 45.8798 137.901C45.7636 137.941 44.4765 137.377 45.2541 136.858Z" fill="#FEFDF9"/>
<path d="M136.384 121.405C137.654 121.262 137.385 122.819 135.759 122.242C135.589 122.085 136.331 121.414 136.384 121.405Z" fill="#E5E4E2"/>
<path d="M29.8219 119.525C30.5861 119.511 30.4521 120.746 29.8219 120.778C29.156 120.813 28.9907 119.542 29.8219 119.525Z" fill="#FEFDF9"/>
<path d="M148.063 125.163C149.185 124.783 149.068 125.642 148.273 126.206L147.334 125.683C147.316 125.624 147.96 125.195 148.063 125.159V125.163Z" fill="#FEFDF9"/>
<path d="M132.631 136.647C133.458 136.647 133.189 137.901 132.631 137.901C132.072 137.901 131.804 136.647 132.631 136.647Z" fill="#FEFDF9"/>
<path d="M154.734 120.777C154.909 120.71 155.235 120.987 155.257 121.09C155.525 122.299 152.527 121.238 154.734 120.777Z" fill="#FEFDF9"/>
<path d="M104.268 119.941C104.326 119.923 105.417 120.049 105.417 120.254L104.688 120.984C104.277 120.384 103.263 120.277 104.273 119.941H104.268Z" fill="#FEFDF9"/>
<path d="M128.667 117.224C129.99 116.718 129.449 118.083 128.877 118.267C128.796 118.294 127.576 117.64 128.667 117.224Z" fill="#FEFDF9"/>
<path d="M141.386 122.447C141.475 122.456 142.047 122.952 141.802 123.284C141.163 124.143 139.831 122.268 141.386 122.447Z" fill="#FEFDF9"/>
<path d="M122.619 142.913C123.558 142.985 122.883 144.753 121.681 143.437C122.11 143.49 122.566 142.909 122.619 142.913Z" fill="#FEFDF9"/>
<path d="M117.199 149.595C118.03 149.662 117.52 151.197 116.26 150.324C116.206 150.226 117.14 149.59 117.199 149.595Z" fill="#FEFDF9"/>
<path d="M140.135 128.502C141.069 128.269 140.841 129.54 140.55 129.545C140.246 129.554 138.714 128.856 140.135 128.502Z" fill="#FEFDF9"/>
<path d="M144.933 114.301C145.13 114.274 145.881 114.708 145.872 114.825C145.796 115.814 143.347 114.525 144.933 114.301Z" fill="#FEFDF9"/>
<path d="M55.8857 125.996C56.9315 125.951 56.5114 127.791 55.1572 126.52C55.7337 126.56 55.841 126 55.8857 125.996Z" fill="#E5E4E2"/>
<path d="M50.8855 119.104C51.3727 119.086 51.5336 120.294 50.8855 120.357C49.9694 120.446 50.5012 119.117 50.8855 119.104Z" fill="#FEFDF9"/>
<path d="M147.642 119.524C147.888 119.506 148.371 119.967 148.371 120.048C148.407 121.198 146.19 119.64 147.642 119.524Z" fill="#FEFDF9"/>
<path d="M18.56 116.808C20.1823 116.821 18.922 118.316 18.0371 117.331L18.56 116.808Z" fill="#FEFDF9"/>
<path d="M115.321 121.404C115.366 121.377 116.318 121.543 116.259 121.928C116.099 122.966 114.543 121.901 115.321 121.404Z" fill="#FEFDF9"/>
<path d="M108.229 124.953L109.168 125.266C108.636 126.43 107.04 125.513 108.229 124.953Z" fill="#FEFDF9"/>
<path d="M21.0629 121.82C21.1032 121.775 22.1534 121.856 22.2115 122.133C22.3858 122.948 20.3657 122.603 21.0629 121.82Z" fill="#FEFDF9"/>
<path d="M149.103 112.422C150.108 112.435 149.027 113.465 148.893 113.465C148.522 113.465 148.008 112.409 149.103 112.422Z" fill="#FEFDF9"/>
<path d="M17.5191 120.983C18.1135 121.019 18.0911 122.111 17.309 122.026L16.7861 121.502L17.5146 120.979L17.5191 120.983Z" fill="#E5E4E2"/>
<path d="M93.8428 138.738C95.1612 138.738 95.6215 138.545 94.4685 139.575L93.8428 138.738Z" fill="#FEFDF9"/>
<path d="M160.571 116.598C161.505 116.598 160.893 117.887 160.571 117.851C160.45 117.837 159.507 116.598 160.571 116.598Z" fill="#FEFDF9"/>
<path d="M122.41 121.194C123.129 121.252 122.767 122.219 122.41 122.236C121.838 122.268 121.511 121.122 122.41 121.194Z" fill="#FEFDF9"/>
<path d="M100.515 117.018C100.783 117.049 101.368 118.195 100.305 118.061C99.4154 117.949 100.287 116.991 100.515 117.018Z" fill="#FEFDF9"/>
<path d="M99.8893 147.504C100.435 147.558 100.385 148.52 99.8893 148.547C99.3084 148.579 99 147.419 99.8893 147.504Z" fill="#FEFDF9"/>
<path d="M22.9401 114.302C24.0663 114.548 22.0999 115.949 22.2116 114.826C22.2206 114.749 22.8999 114.293 22.9401 114.302Z" fill="#FEFDF9"/>
<path d="M162.659 106.783C165.68 106.882 168.639 107.759 171.521 108.56C168.518 108.318 165.591 107.401 162.659 106.783Z" fill="#292829"/>
<path d="M103.433 24.2945C104.376 24.2498 106.615 25.3418 107.603 25.758C110.441 26.9485 123.83 33.0978 125.537 34.53C125.958 34.8791 126.4 35.2416 126.266 35.886L116.362 53.9492L91.6525 63.661V104.594L176.423 104.907C176.812 105.158 176.638 105.314 176.526 105.637C176.146 106.729 172.057 110.237 171.418 111.795C166.761 110.927 162.104 110.318 157.34 110.439C161.737 111.495 165.728 112.556 168.289 116.597C164.875 115.469 161.661 113.585 158.278 112.422C150.922 109.888 134.418 107.131 126.789 107.825C126.123 107.888 125.059 108.018 124.496 108.452C131.732 109.683 141.126 112.542 144.098 119.936C141.734 118.217 139.307 116.427 136.384 115.76C135.584 115.031 137.595 115.483 136.384 114.507C132.29 111.209 109.301 109.969 103.853 110.958C103.554 111.012 103.125 110.846 103.438 111.374C111.044 112.422 118.789 114.037 125.229 118.369C119.343 117.452 113.94 114.946 108.023 114.086C101.225 113.097 93.8334 113.097 86.9599 113.044C91.0491 115.183 95.201 117.976 96.9707 122.442C95.0982 120.822 93.2524 118.933 91.1296 117.64C88.8548 116.253 80.6003 112.363 78.2004 112.001C75.501 111.594 72.8553 111.987 70.1738 112.314C72.5156 113.366 75.9077 113.003 77.7847 114.923C71.0051 112.941 63.7695 112.721 56.7217 112.207C52.8335 111.925 50.2057 111.804 46.2952 111.37C44.2081 111.142 41.7412 111.262 39.6228 111.159C42.1657 113.437 46.6572 115.232 47.3365 118.884C42.9791 113.84 35.5156 109.96 28.7762 109.906L40.7669 116.485L25.2322 112.623C25.9025 111.714 27.9449 112.43 28.9862 112.207C22.5552 109.817 15.0113 109.584 8.13326 109.911C7.82936 109.835 4.25405 105.811 4.37918 104.898H89.4626L89.7754 64.4889C81.2975 67.1787 72.9536 70.6965 64.6455 73.9904C63.1394 74.1963 62.3752 73.7085 61.6199 72.424C60.078 69.8014 51.9978 49.9525 51.4034 47.1553C51.0012 45.2667 51.3587 44.7744 52.9676 43.7092L103.433 24.29V24.2945Z" fill="white"/>
<path d="M72.9895 105.95C73.5795 105.888 80.1849 105.892 80.1849 106.263L70.2812 106.787C70.8041 106.322 72.3371 106.017 72.994 105.95H72.9895Z" fill="#BCBCBC"/>
<path d="M98.4283 105.949C100.319 105.82 102.173 106.043 103.957 106.679L94.6787 106.992C95.5055 106.589 97.5792 106.008 98.4328 105.949H98.4283Z" fill="#BCBCBC"/>
<path d="M56.5119 109.288H59.8504L62.2503 110.018C60.5654 109.583 58.5811 110.004 56.932 109.704C56.6326 109.651 56.2036 109.816 56.5164 109.288H56.5119Z" fill="#BCBCBC"/>
<path d="M13.5547 107.408C15.5881 107.283 17.5903 107.627 19.4986 108.348L13.5547 107.408Z" fill="#BCBCBC"/>
<path d="M155.15 107.619L158.175 108.143L153.062 108.246L155.15 107.619Z" fill="#BCBCBC"/>
<path d="M36.7042 107.829L39.7253 108.142L34.8271 108.456L36.7042 107.829Z" fill="#BCBCBC"/>
<path d="M48.7976 106.366C49.3473 106.317 50.4378 106.232 50.8847 106.576L45.5664 107.1C46.5317 106.845 47.8278 106.451 48.7976 106.37V106.366Z" fill="#BCBCBC"/>
<path d="M61.3115 106.366C61.7182 106.339 66.3527 106.303 66.2142 106.889L61.3115 106.366Z" fill="#BCBCBC"/>
<path d="M118.656 107.83C119.447 107.651 121.288 108.049 122.097 108.353L118.24 108.25C118.021 108.143 118.629 107.839 118.656 107.834V107.83Z" fill="#94918F"/>
<path d="M90.9243 63.7646L91.2327 104.59L90.5042 104.903L90.1914 64.0779L90.9243 63.7646Z" fill="#DDDDDD"/>
<path d="M103.017 25.1318L105.935 25.7584L125.434 35.4702L116.469 52.8038C99.9781 60.4166 82.2892 65.832 65.4808 72.957L63.1882 73.1673L52.0332 45.2895C52.3014 44.7211 54.1963 44.0184 54.8488 43.723C70.1734 36.7502 87.5896 32.1584 103.022 25.1363L103.017 25.1318Z" fill="#868686"/>
<path d="M64.6605 62.6164L60.4676 51.6935L63.358 50.584L66.622 59.087L70.7559 57.5002L71.6848 59.92L64.6605 62.6164ZM73.3362 59.2861L70.1109 50.8839L73.0013 49.7744L76.2266 58.1766L73.3362 59.2861ZM71.1562 49.2872C70.6856 49.4678 70.2553 49.4852 69.8651 49.3394C69.4706 49.1823 69.1895 48.8853 69.0218 48.4484C68.8541 48.0115 68.8664 47.6083 69.0588 47.2388C69.2468 46.8581 69.5761 46.5775 70.0467 46.3969C70.5172 46.2162 70.9497 46.2045 71.3442 46.3615C71.7344 46.5074 72.0133 46.7988 72.181 47.2357C72.3487 47.6726 72.3386 48.0814 72.1505 48.4621C71.9581 48.8316 71.6267 49.1066 71.1562 49.2872ZM80.8427 56.636C80.3049 56.8424 79.6927 56.9553 79.006 56.9747C78.3263 56.9785 77.7013 56.8907 77.131 56.7111L77.7244 54.4396C78.7012 54.7073 79.4921 54.7251 80.0971 54.4928C80.3996 54.3767 80.5974 54.2558 80.6905 54.1301C80.7905 53.9889 80.8083 53.8342 80.7438 53.6662C80.6578 53.4421 80.4287 53.3308 80.0565 53.3323C79.68 53.3226 79.2466 53.3154 78.7564 53.3108C78.3799 53.3011 77.9905 53.2577 77.5883 53.1808C77.1929 53.0883 76.8264 52.9205 76.4888 52.6774C76.1512 52.4342 75.8943 52.0829 75.718 51.6236C75.3998 50.7946 75.4541 50.0153 75.8811 49.2859C76.308 48.5564 77.0144 48.0025 78.0003 47.6241C78.6949 47.3574 79.3338 47.2471 79.917 47.2932C80.5071 47.3237 81.0408 47.4081 81.518 47.5462L80.8989 49.7505C80.5104 49.6426 80.1468 49.5829 79.8082 49.5715C79.4697 49.5601 79.1715 49.6038 78.9139 49.7027C78.4209 49.8919 78.2347 50.1434 78.3551 50.4571C78.4368 50.6699 78.6525 50.7799 79.0023 50.787C79.359 50.7787 79.7747 50.7733 80.2494 50.771C80.6328 50.7653 81.0257 50.8008 81.428 50.8778C81.8415 50.9504 82.217 51.1083 82.5546 51.3515C82.9033 51.5904 83.1745 51.9619 83.368 52.466C83.669 53.2502 83.6147 54.0295 83.2049 54.8037C82.8064 55.5737 82.019 56.1845 80.8427 56.636ZM88.9864 53.5099C87.8997 53.9271 86.9895 53.9166 86.2557 53.4784C85.5289 53.0248 84.9698 52.2882 84.5784 51.2687L83.456 48.3448L82.3469 48.7705L81.5212 46.6195L82.7597 46.0285L82.2572 43.7149L84.6434 42.7989L85.482 44.9835L87.3977 44.2481L88.2621 46.4999L86.3464 47.2353L87.4494 50.1088C87.6258 50.5681 87.8491 50.8487 88.1196 50.9506C88.3901 51.0524 88.6597 51.0517 88.9286 50.9485C89.063 50.8969 89.1876 50.8362 89.3022 50.7665C89.4237 50.6813 89.5285 50.6025 89.6164 50.5302L90.8532 52.4463C90.6661 52.5952 90.4231 52.7656 90.124 52.9576C89.8249 53.1495 89.4457 53.3336 88.9864 53.5099ZM95.775 50.6726L91.5821 39.7497L94.6741 38.5628L98.0368 42.4007C98.2538 42.6644 98.4694 42.9416 98.6838 43.232C98.8981 43.5225 99.118 43.8109 99.3436 44.097L99.4108 44.0712C99.3869 43.7076 99.3574 43.3462 99.3223 42.9869C99.2872 42.6276 99.262 42.2774 99.2468 41.9362L99.1105 36.8599L102.203 35.673L106.395 46.5958L103.774 47.6021L102.535 44.3757C102.394 44.006 102.257 43.5829 102.125 43.1064C101.989 42.6186 101.859 42.1288 101.735 41.6367C101.61 41.1447 101.501 40.7108 101.409 40.3351L101.341 40.3609L101.44 43.3308L101.483 47.4598L99.9367 48.0532L97.2055 44.9563L95.3254 42.6703L95.2582 42.6961C95.4406 43.0374 95.6501 43.4325 95.8867 43.8815C96.1234 44.3306 96.3544 44.7817 96.5798 45.2351C96.801 45.6772 96.9825 46.0831 97.1244 46.4528L98.3629 49.6792L95.775 50.6726ZM112.562 44.46C111.744 44.7739 110.938 44.8841 110.144 44.7905C109.361 44.6927 108.654 44.392 108.024 43.8884C107.389 43.3736 106.894 42.6513 106.537 41.7215C106.188 40.8141 106.08 39.9623 106.211 39.1664C106.35 38.3549 106.658 37.6516 107.137 37.0566C107.615 36.4616 108.196 36.0329 108.88 35.7706C109.709 35.4524 110.463 35.3749 111.143 35.5382C111.829 35.6859 112.42 36.0184 112.914 36.5357C113.419 37.0486 113.816 37.6804 114.104 38.431C114.199 38.6775 114.274 38.9248 114.331 39.173C114.395 39.4056 114.435 39.5767 114.451 39.6861L109.662 41.5245C109.99 41.9771 110.366 42.2375 110.791 42.3058C111.211 42.363 111.656 42.3012 112.127 42.1206C112.665 41.9142 113.172 41.5268 113.647 40.9585L115.246 42.3113C114.919 42.797 114.507 43.2314 114.011 43.6145C113.516 43.9975 113.033 44.2794 112.562 44.46ZM108.906 39.6553L111.393 38.7006C111.268 38.3758 111.076 38.1279 110.818 37.9572C110.567 37.7709 110.222 37.7616 109.785 37.9294C109.472 38.0498 109.228 38.2525 109.055 38.5376C108.881 38.8226 108.832 39.1952 108.906 39.6553Z" fill="white"/>
</svg>
