<svg width="22" height="13" viewBox="0 0 22 13" fill="none" xmlns="http://www.w3.org/2000/svg">
<path d="M17.4992 12.1241L21.0913 8.53204C21.6746 7.92082 22 7.1084 22 6.26352C22 5.41864 21.6746 4.60623 21.0913 3.995L17.4992 0.402951C17.2414 0.145032 16.8917 8.59837e-05 16.5271 3.82425e-08C16.1624 -8.59072e-05 15.8126 0.144695 15.5547 0.402493C15.2968 0.66029 15.1519 1.00999 15.1518 1.37465C15.1517 1.73932 15.2965 2.08908 15.5543 2.347L18.1023 4.896L1.37486 4.91708C1.01023 4.91708 0.660524 5.06193 0.402687 5.31976C0.144851 5.5776 0 5.9273 0 6.29194C0 6.65657 0.144851 7.00627 0.402687 7.26411C0.660524 7.52195 1.01023 7.6668 1.37486 7.6668L18.0849 7.64572L15.5543 10.18C15.3038 10.4393 15.1652 10.7866 15.1684 11.1471C15.1715 11.5076 15.3161 11.8524 15.571 12.1073C15.8259 12.3623 16.1707 12.5069 16.5312 12.51C16.8917 12.5131 17.2399 12.3745 17.4992 12.1241Z" fill="white"/>
</svg>
