<svg width="301" height="266" viewBox="0 0 301 266" fill="none" xmlns="http://www.w3.org/2000/svg">
<path d="M240.646 95.9416C248.195 94.6692 253.968 100.079 253.129 107.742C255.142 104.052 260.484 104.015 262.661 107.571C263.181 108.412 263.709 111.44 263.872 111.567C264.065 111.716 266.228 109.811 268.382 110.525C269.682 110.957 271.458 114.335 272.543 114C272.922 113.881 274.215 109.044 277.224 113.829C277.38 114.074 277.068 115.302 277.224 115.562C277.491 116.009 279.936 116.262 280.345 117.296L210.139 117.467C210.584 115.101 214.247 115.436 214.99 115.034C215.823 114.588 216.692 111.916 219.151 111.217C221.611 110.518 223.438 111.641 223.661 111.567C224.107 111.403 224.508 107.675 225.222 106.53C227.138 103.449 231.998 102.965 234.412 105.659C234.39 101.797 236.448 96.6484 240.654 95.9341L240.646 95.9416Z" fill="#D0C7F5"/>
<path d="M234.753 25.464C241.515 24.3628 246.374 28.5816 245.497 35.5311C248.142 32.4209 252.258 33.4328 254.688 36.4016C255.037 36.8257 254.896 38.0832 255.208 38.3138C255.609 38.6115 256.315 37.3466 256.597 37.2722C262.385 35.7022 262.4 41.2752 262.839 41.4389C262.92 41.4686 263.856 40.427 264.228 40.3972C266.375 40.2186 270.343 42.1383 270.64 44.7351L212.567 44.9062C212.939 42.1085 218.192 43.3586 218.459 43.1725C218.586 43.0833 218.913 41.0743 219.329 40.5683C221.513 37.8897 224.463 37.0266 227.479 39.0058C227.836 38.9835 227.152 33.4849 227.308 32.5846C227.814 29.5935 231.796 25.9476 234.761 25.464H234.753Z" fill="#D0C7F5"/>
<path d="M49.2712 48.3809C50.8538 48.2916 54.9625 49.7277 56.2033 50.814C57.4441 51.9003 58.3878 54.9733 58.6329 54.9807C58.7295 54.9807 59.101 53.7902 60.0224 53.5893C65.6766 52.3765 64.302 60.4495 64.8741 60.8811C64.941 60.9332 65.8623 59.8915 66.2635 59.8394C73.0174 58.954 71.7097 64.4228 72.5047 64.6981C72.9951 64.8692 76.1677 63.3365 76.8364 66.2606L25.0049 66.7815C26.0599 65.8142 30.0498 61.6549 30.8969 61.2233C32.42 60.4495 33.8688 61.268 34.0174 61.2233C34.6044 61.0448 37.2198 51.3869 42.6882 59.14C42.5619 54.8021 43.9365 48.6637 49.2786 48.3809H49.2712Z" fill="#D0C7F5"/>
<path d="M135.232 0.0144383C141.466 -0.335268 142.803 5.73624 142.863 10.7735C144.133 9.29283 146.258 8.57109 148.064 9.38212C150.174 10.3345 148.539 12.5964 152.574 10.7735C153.97 11.406 152.953 13.3033 153.963 13.8985C154.171 14.0176 157.693 13.281 156.734 16.3316L113.224 16.5027C112.333 12.5369 118.522 13.6604 118.775 13.3777C118.879 13.2587 118.946 11.0934 119.466 10.2527C121.546 6.91929 125.194 4.84337 128.307 8.34044C129.117 4.38949 130.521 0.274858 135.24 0.00699774L135.232 0.0144383Z" fill="#D0C7F5"/>
<path d="M40.1727 127.685C44.7273 126.583 44.3038 130.936 45.0245 131.159C45.1062 131.189 46.0201 130.43 46.7557 130.81C47.7736 131.338 48.1674 132.402 48.4869 132.543C49.2522 132.878 51.7932 132.826 51.9567 132.893C52.5734 133.153 55.4191 135.319 54.3863 136.018C53.0117 136.948 25.2534 135.43 21.2783 135.847C21.4418 135.125 25.0156 132.871 25.2682 132.893C25.4465 132.915 26.1598 133.935 26.3084 133.935C31.5763 133.897 30.1349 131.033 31.8586 130.46C32.0741 130.393 36.0714 130.408 36.3686 130.46C36.807 130.542 36.911 131.844 37.4088 131.502C37.6094 131.36 38.0181 128.205 40.1802 127.685H40.1727Z" fill="#D0C7F5"/>
<path d="M254.495 134.803C254.792 134.788 255.29 134.714 255.364 134.974L246.352 138.791L252.942 137.4C251.032 138.538 236.054 143.575 235.608 144.691C234.746 146.849 237.391 150.294 238.208 152.154C236.284 151.209 232.168 149.334 233.007 146.946C226.343 152.445 231.142 145.116 231.098 144.691C231.046 144.2 225.451 139.87 224.857 138.791C224.686 137.534 227.695 140.227 228.148 140.354C229.307 140.666 231.737 140.502 233 140.703C233.513 140.785 234.954 142.087 235.08 142.095C235.281 142.095 237.837 140.249 238.55 140.011C240.928 139.208 253.172 134.862 254.495 134.803Z" fill="#4318FF"/>
<path d="M15.2931 82.7486C16.2962 83.5894 23.4438 88.5821 23.9639 88.649C25.279 88.8276 36.0599 81.8483 39.3885 83.2695L34.0167 85.8737L42.5091 84.3112C39.76 85.5463 26.4307 89.0062 25.0041 90.7324C22.9163 93.2547 26.4827 99.9066 26.0443 100.108C24.5509 97.5554 21.0439 96.5807 21.8835 93.5077C16.0436 98.7682 20.0483 92.5553 19.974 91.5955C19.8997 90.5092 15.152 84.7278 15.2931 82.7412V82.7486Z" fill="#4318FF"/>
<path opacity="0.5" d="M251.568 162.951C250.572 162.296 248.871 167.482 251.568 167.289L251.397 164.335L253.128 167.46L251.568 162.944C252.281 163.851 253.946 167.326 254.168 167.46C254.287 167.534 256.851 167.564 256.94 167.46C257.378 166.984 256.197 162.482 257.98 167.46C258.426 164.61 258.53 167.267 259.02 167.46C259.176 167.52 262.156 167.505 262.312 167.46C262.423 167.423 262.572 167.505 262.661 167.46C264.028 166.128 263.827 164.499 263.352 162.772C264.295 162.676 264.11 164.759 265.083 163.464L264.214 160.86C266.584 162.78 265.811 164.707 267.334 167.46C268.798 167.683 268.062 166.143 268.025 165.377C269.883 170.31 270.046 164.395 271.146 167.46L271.837 165.027C272.194 166.716 271.547 167.334 273.568 167.46C273.746 166.329 274.891 164.9 275.648 164.685C276.124 164.551 274.861 166.835 276.169 165.555L276.689 162.601L277.38 165.034C278.672 163.278 278.026 162.653 277.38 160.868C279.356 162.4 280.24 163.941 281.54 166.426L281.191 162.609C282.075 163.836 282.023 166.188 283.792 164.863C280.894 167.877 288.331 167.713 288.822 167.467C289.855 166.939 290.776 162.973 289.342 162.088C292.158 164.67 291.11 161.232 293.332 159.833C289.171 163.933 294.959 172.378 292.641 163.308C294.892 165.979 293.518 167.944 297.151 166.783C297.426 166.694 297.01 168.531 298.882 165.741C298.028 168.918 300.249 166.627 300.962 167.133C287.158 198.056 261.219 225.444 231.975 242.818C169.786 279.761 98.882 271.606 44.4203 225.11C26.3654 209.7 9.53652 188.599 0.0410156 167.133L2.99072 166.962L2.12141 164.008C3.80801 165.831 2.38889 167.497 4.7219 164.878C4.77391 165.607 3.19132 166.783 4.2018 167.482C4.74419 167.854 5.8364 165.607 6.28219 167.482V165.749L7.32239 167.482C8.34773 167.534 7.24809 163.159 8.7118 167.482C10.2498 167.892 10.6584 166.031 10.7922 166.091C11.0374 166.21 10.5916 167.743 13.2218 167.482V165.049L14.262 167.482L15.3022 165.399L15.9932 167.482L16.6842 165.049C17.4049 167.311 18.4674 169.127 18.4153 165.399C19.7825 169.491 21.209 166.017 19.2846 163.836C20.3991 163.323 20.3323 165.957 21.1942 165.749C21.4691 165.682 22.9625 161.284 23.9655 160.89C23.646 163.174 20.6369 165.377 22.5761 167.49C23.23 165.064 23.8615 168.576 25.3475 167.49C25.9791 167.028 25.1172 163.323 26.3877 167.49L26.7369 164.714C26.9078 169.722 32.8072 167.735 31.5887 162.631C32.7403 173.405 35.326 163.286 37.8299 159.856L35.2294 165.585L35.7495 167.497L37.4807 162.639C35.7495 170.816 39.509 166.359 39.9103 166.456C40.044 166.485 40.3263 167.899 41.8198 166.976L40.6087 162.981L42.3399 165.756L44.071 162.981C44.0413 164.424 44.6357 166.136 45.4605 167.497C45.832 164.633 46.1812 167.49 46.5006 167.497C46.8201 167.505 48.269 161.85 48.9302 167.497C49.4801 165.243 52.5635 170.154 52.0508 165.064C52.6007 170.816 55.3275 163.583 54.6513 161.768C56.3602 163.546 55.9293 160.853 57.601 159.856C56.1448 162.884 55.5504 163.368 57.601 166.456L58.1211 162.81C59.8672 165.25 56.2636 167.572 60.0306 167.497C60.3427 167.497 60.0678 166.456 60.3798 166.456C60.4839 166.456 61.6355 167.52 62.111 167.497C63.285 167.445 64.08 166.47 64.1914 166.456C64.2806 166.441 65.3282 167.49 65.9226 167.148C66.6879 166.709 65.8409 165.124 66.0935 164.543C66.3461 163.963 66.6433 165.578 67.4829 164.543C68.4116 163.397 69.1992 160.987 70.4326 159.856C68.5379 163.39 70.2468 164.112 71.4728 167.497L72.1638 165.764L73.3749 167.326L72.8548 164.372C73.7909 165.012 73.6869 166.984 74.5859 167.497C74.8757 167.661 76.28 166.284 76.6663 167.497L78.0557 162.639L79.2668 167.326L80.4779 165.072L80.8271 167.505L84.2969 160.905L81.8673 167.505C83.123 166.374 83.5391 167.505 83.9477 167.505C84.2821 167.505 84.5347 166.463 84.6387 166.463C84.8542 166.463 86.1396 169.603 86.0281 164.729L87.4175 167.505L88.1085 164.38L87.9376 166.292L88.8069 165.421L89.1561 167.155C90.2706 164.953 92.3807 169.796 92.6259 165.072L93.3169 167.155C93.8816 165.02 91.9275 163.219 91.4074 161.255H91.7566C92.5442 162.17 93.2798 163.688 93.4878 164.9C94.4909 165.459 94.3348 163.159 94.6989 163.338C95.0927 163.531 94.7286 164.491 94.8698 164.729C94.3571 164.581 93.6736 167.11 94.6989 167.505L94.8698 164.729C95.063 165.049 97.1434 167.393 97.4703 167.505C97.552 167.534 98.0424 166.813 98.1613 166.813C98.8002 166.813 99.0974 167.527 99.2015 167.505C99.6695 167.4 100.546 164.908 100.933 164.38L100.413 167.334L101.624 165.771L101.973 167.505C102.315 166.865 102.359 166.113 102.493 165.421C102.812 166.344 102.708 167.058 103.704 167.505L104.053 165.072L104.744 167.505L104.395 163.688C106.119 165.25 104.96 167.46 107.686 167.334L107.166 165.079L108.556 167.512L109.945 165.429C109.18 167.773 113.995 168.442 113.415 165.079L113.764 167.162C115.845 164.871 112.947 162.631 112.204 160.391L115.495 164.729C116.833 163.68 115.25 159.952 115.495 159.871C116.023 159.692 116.35 162.668 118.096 160.741C116.261 162.743 118.497 164.856 119.307 167.162L120.347 165.429C119.426 169.499 121.543 166.456 121.737 166.47C121.841 166.478 122.13 167.549 122.428 167.512C122.695 167.482 122.509 166.82 122.777 166.82C123.416 166.82 123.713 167.534 123.817 167.512C124.434 167.371 124.263 166.188 124.508 166.121C124.723 166.069 126.143 169.915 126.588 165.079L127.279 167.512C128.201 166.262 128.163 164.402 127.45 163.174C129.597 165.868 129.969 161.046 131.782 159.528C131.544 162.572 127.985 164.253 129.701 167.512L130.051 165.079C130.942 165.637 130.259 168.085 131.96 167.334L130.749 163.338C131.663 163.881 132.295 167.378 132.48 167.505C134.011 168.524 135.816 166.143 135.252 164.38C135.645 168.256 136.478 166.649 138.372 166.813C138.662 166.835 138.261 167.505 139.063 167.505C139.16 167.505 139.078 165.28 139.754 167.505L140.445 163.688C140.646 168.271 141.523 168.003 145.817 166.642V112.482L107.508 126.887C104.425 127.154 102.879 125.793 101.438 123.241C98.035 117.206 84.1335 83.389 82.7143 77.0645C81.7262 72.6523 83.383 71.2014 87.046 69.2519L169.556 37.3096L173.026 37.6593L211.506 56.4095C212.301 57.1238 212.457 57.9944 212.375 59.0137C212.211 61.0078 194.773 92.7716 193.131 93.9025L154.131 109.349L154.48 166.984L155.35 165.072C155.112 167.75 157.066 167.505 159.161 167.155C160.008 166.128 159.31 165.332 158.99 164.201C161.242 167.884 161.271 161.582 163.671 160.205C163.567 161.455 159.57 166.716 161.591 167.497C162.327 167.78 163.545 166.798 163.671 166.805C164.474 166.835 164.102 167.534 164.362 167.497C164.793 167.438 164.83 166.634 164.882 166.627C165.157 166.589 166.19 169.067 165.752 164.372C167.275 168.048 167.84 167.162 171.302 167.497L171.822 166.627L171.131 164.194L172.342 166.106L173.382 163.331C174.891 164.461 171.896 167.445 175.292 167.326L174.772 164.722L176.852 167.497L175.983 163.502C179.906 168.97 178.13 159.164 178.583 159.164L179.103 163.851L180.835 162.118C179.423 165.481 179.586 168.755 184.126 167.497C184.646 167.356 185.085 166.091 185.166 166.106C185.434 166.173 185.189 167.252 185.857 167.497C186.117 167.594 188.748 166.835 189.327 167.148L190.018 165.414L190.367 167.497C191.385 165.176 191.942 163.777 191.757 161.247L192.448 165.064L194.008 162.46C193.911 163.71 191.868 169.35 194.357 166.627L194.186 164.714C195.063 165.109 194.565 167.304 195.226 167.49C199.031 168.576 195.264 164.96 195.917 163.673L197.998 167.49C199.915 167.43 198.897 166.56 199.387 165.057L200.427 167.49C201.156 165.637 201.505 167.587 201.817 167.49C201.98 167.438 201.988 164.543 201.646 164.194L202.515 167.148L205.287 161.589C204.789 164.424 203.771 164.35 206.156 166.627L204.076 165.585C203.726 168.256 207.999 167.668 207.716 165.414L208.586 167.326C208.482 165.213 209.418 163.137 210.837 161.597C211.097 163.025 207.798 166.582 209.447 167.497C209.655 167.609 210.272 165.838 212.219 167.497C213.014 166.976 212.405 163.874 213.259 167.497L214.299 164.372C212.969 168.427 217.658 167.914 218.111 165.414L218.802 167.497C218.906 165.243 220.228 163.39 221.573 161.597C218.943 165.079 222.717 171.761 221.224 163.68C221.974 164.342 222.145 167.088 222.955 167.497C223.007 167.52 223.587 166.783 223.646 166.805C225.526 167.363 226.001 167.72 228.498 167.155L229.538 165.072C228.676 170.31 231.745 166.009 229.367 163.159C232.109 166.426 231.566 161.284 234.048 159.514C233.937 161.515 230.043 165.734 231.277 167.497C232.651 169.462 232.726 164.283 232.666 164.022L233.706 167.497C234.33 167.534 234.264 164.61 234.746 167.497C237.02 167.386 234.472 165.295 234.746 163.68C235.378 163.978 235.846 166.515 236.478 166.456C237.198 166.389 237.094 164.082 238.038 164.201L238.209 167.497L238.558 164.722C238.335 168.71 244.19 168.688 243.41 164.372C244.294 165.213 242.845 166.508 244.101 167.497C244.249 167.616 247.749 167.587 247.912 167.497C250.03 166.381 248.113 162.162 247.043 160.726L249.644 164.372L251.033 161.939C251.583 162.147 251.501 162.914 251.553 162.981L251.568 162.951Z" fill="#4318FF"/>
<path d="M16.3342 185.168C18.1694 186.024 29.6561 187.148 30.0276 188.465C30.1168 188.777 29.3961 189.581 29.6784 190.198C28.4822 190.585 27.3157 190.794 26.0377 190.719C25.6068 190.689 19.7668 189.782 19.4473 189.677C18.6375 189.41 17.0252 186.411 15.9775 185.86L16.3267 185.168H16.3342Z" fill="#FEFDF9"/>
<path d="M85.3291 187.251C95.6419 188.315 105.472 192.095 114.967 196.106L85.3291 187.251Z" fill="#FEFDF9"/>
<path d="M100.932 200.793C101.385 200.823 101.742 201.151 102.143 201.314C101.408 202.609 100.382 202.817 99.3718 201.664C99.2009 201.232 100.843 200.793 100.932 200.793Z" fill="#FEFDF9"/>
<path d="M123.467 195.585C123.579 195.585 124.975 196.642 125.377 196.798C122.672 198.636 121.461 195.689 123.467 195.585Z" fill="#E5E4E2"/>
<path d="M209.097 215.027C211.037 214.975 209.937 218.688 207.537 215.898C208.243 215.987 209.008 215.035 209.097 215.027Z" fill="#E5E4E2"/>
<path d="M60.0229 218.152C60.2458 218.152 61.6575 218.978 61.5832 219.365L60.3721 220.236L58.8118 219.023C58.6261 218.629 59.9486 218.152 60.0229 218.152Z" fill="#FEFDF9"/>
<path d="M135.252 212.245C135.342 212.245 136.776 213.034 136.813 213.116C137.206 214.076 134.524 214.321 134.041 213.465C133.997 213.391 135.171 212.26 135.252 212.253V212.245Z" fill="#E5E4E2"/>
<path d="M119.997 202.528C121.558 202.602 121.387 204.864 119.648 204.611C118.17 204.395 119.336 202.498 119.997 202.528Z" fill="#FEFDF9"/>
<path d="M68.3439 202.877C71.4348 203.174 67.0957 206.165 66.7836 204.089C66.7539 203.889 68.2474 202.862 68.3439 202.877Z" fill="#FEFDF9"/>
<path d="M150.164 206.344C150.261 206.344 151.189 207.445 151.724 207.557C148.923 209.745 148.544 206.344 150.164 206.344Z" fill="#FEFDF9"/>
<path d="M111.675 221.62C111.765 221.65 112.025 222.811 112.366 223.012C110.687 223.108 110.992 223.897 109.417 222.84C109.328 222.439 111.549 221.59 111.668 221.628L111.675 221.62Z" fill="#FEFDF9"/>
<path d="M90.5308 225.445C93.748 225.08 90.241 228.741 89.3197 226.658C89.2157 226.419 90.4491 225.452 90.5308 225.445Z" fill="#FEFDF9"/>
<path d="M140.802 228.911C141.419 228.873 143.091 230.86 141.151 230.994C139.472 231.106 139.68 228.978 140.802 228.911Z" fill="#FEFDF9"/>
<path d="M259.019 213.286C259.109 213.219 260.966 214.134 260.929 214.499C260.773 215.882 257.021 214.774 259.019 213.286Z" fill="#E5E4E2"/>
<path d="M193.145 216.07C193.212 216.07 193.94 216.583 194.356 216.591C192.855 219.805 190.567 216.114 193.145 216.07Z" fill="#FEFDF9"/>
<path d="M160.558 206.344C163.374 206.143 159.027 209.916 159.168 206.694C159.741 206.992 160.484 206.352 160.558 206.344Z" fill="#E5E4E2"/>
<path d="M99.893 239.678C102.731 239.18 100.955 241.367 100.242 241.412C100.079 241.419 97.5599 240.088 99.893 239.678Z" fill="#FEFDF9"/>
<path d="M135.601 200.094C135.675 200.065 136.819 200.347 137.161 200.266C136.841 203.004 133.639 200.972 135.601 200.094Z" fill="#FEFDF9"/>
<path d="M43.3796 212.244C45.2 212.334 44.301 212.921 43.7288 213.978L41.8193 213.107L43.3796 212.237V212.244Z" fill="#FEFDF9"/>
<path d="M182.401 229.611C183.337 229.567 184.236 231.107 182.75 231.345C180.707 231.672 181.302 229.663 182.401 229.611Z" fill="#FEFDF9"/>
<path d="M211.18 205.653C211.276 205.653 212.406 206.694 212.74 206.866C209.879 208.748 209.709 205.653 211.18 205.653Z" fill="#FEFDF9"/>
<path d="M126.588 240.719C128.319 240.317 128.104 242.78 126.937 242.802C126.685 242.802 125.043 241.084 126.588 240.719Z" fill="#FEFDF9"/>
<path d="M95.0337 193.501C96.2523 193.747 95.5464 196.016 94.6845 195.585C93.897 195.19 93.5329 193.196 95.0337 193.501Z" fill="#E5E4E2"/>
<path d="M256.249 193.152C258.567 192.847 257.37 193.844 256.598 194.886C255.662 194.209 253.864 193.465 256.249 193.152Z" fill="#FEFDF9"/>
<path d="M167.148 217.454C167.512 217.565 167.022 219.522 166.457 219.537C164.236 219.597 165.632 216.985 167.148 217.454Z" fill="#FEFDF9"/>
<path d="M104.394 208.777C105.397 208.695 105.873 210.794 104.394 210.861C102.41 210.95 104.038 208.807 104.394 208.777Z" fill="#FEFDF9"/>
<path d="M79.0884 208.428C81.0128 208.324 79.5863 210.63 79.0884 210.511C78.3009 210.318 77.6099 208.51 79.0884 208.428Z" fill="#FEFDF9"/>
<path d="M56.5532 206.002C56.6424 206.002 57.4077 206.962 58.1135 206.872C56.5384 207.758 56.9916 208.219 55.3422 207.222C55.2381 206.984 56.4715 206.009 56.5532 206.009V206.002Z" fill="#FEFDF9"/>
<path d="M147.385 252.871C147.474 252.856 148.908 253.317 148.945 253.392C149.933 255.579 144.309 253.459 147.385 252.871Z" fill="#FEFDF9"/>
<path d="M244.805 225.095C246.024 224.805 247.005 226.501 245.496 226.828C243.988 227.156 243.758 225.34 244.805 225.095Z" fill="#E5E4E2"/>
<path d="M266.3 202.178C268.21 201.97 267.72 203.324 266.65 204.262L265.089 203.049C265.06 202.952 266.226 202.186 266.3 202.178Z" fill="#FEFDF9"/>
<path d="M75.276 227.528C76.6803 226.583 77.505 228.867 76.3162 229.262C76.123 229.329 73.9832 228.391 75.276 227.528Z" fill="#FEFDF9"/>
<path d="M226.781 201.836C228.891 201.598 228.446 204.187 225.741 203.227C225.459 202.967 226.692 201.851 226.781 201.836Z" fill="#E5E4E2"/>
<path d="M49.6208 198.711C50.8913 198.688 50.6684 200.742 49.6208 200.794C48.5137 200.854 48.2388 198.74 49.6208 198.711Z" fill="#FEFDF9"/>
<path d="M246.196 208.085C248.061 207.452 247.868 208.881 246.545 209.818L244.985 208.948C244.955 208.851 246.025 208.137 246.196 208.077V208.085Z" fill="#FEFDF9"/>
<path d="M220.541 227.178C221.915 227.178 221.469 229.261 220.541 229.261C219.612 229.261 219.166 227.178 220.541 227.178Z" fill="#FEFDF9"/>
<path d="M257.289 200.794C257.579 200.682 258.121 201.143 258.158 201.314C258.604 203.323 253.619 201.56 257.289 200.794Z" fill="#FEFDF9"/>
<path d="M173.388 199.402C173.484 199.372 175.297 199.581 175.297 199.923L174.086 201.136C173.403 200.139 171.716 199.96 173.395 199.402H173.388Z" fill="#FEFDF9"/>
<path d="M213.951 194.886C216.15 194.045 215.251 196.314 214.3 196.62C214.166 196.664 212.138 195.578 213.951 194.886Z" fill="#FEFDF9"/>
<path d="M235.096 203.569C235.245 203.584 236.196 204.41 235.787 204.96C234.725 206.389 232.511 203.271 235.096 203.569Z" fill="#FEFDF9"/>
<path d="M203.897 237.594C205.458 237.713 204.336 240.652 202.337 238.465C203.05 238.554 203.808 237.587 203.897 237.594Z" fill="#FEFDF9"/>
<path d="M194.884 248.704C196.266 248.815 195.419 251.367 193.324 249.916C193.235 249.753 194.788 248.696 194.884 248.704Z" fill="#FEFDF9"/>
<path d="M233.017 213.637C234.57 213.25 234.191 215.363 233.708 215.37C233.203 215.385 230.654 214.224 233.017 213.637Z" fill="#FEFDF9"/>
<path d="M240.994 190.026C241.321 189.982 242.569 190.703 242.554 190.897C242.428 192.541 238.356 190.398 240.994 190.026Z" fill="#FEFDF9"/>
<path d="M92.9523 209.469C94.6909 209.395 93.9925 212.453 91.7412 210.34C92.6997 210.407 92.878 209.477 92.9523 209.469Z" fill="#E5E4E2"/>
<path d="M84.6392 198.012C85.449 197.982 85.7165 199.991 84.6392 200.095C83.116 200.244 84.0002 198.034 84.6392 198.012Z" fill="#FEFDF9"/>
<path d="M245.498 198.71C245.907 198.68 246.709 199.446 246.709 199.58C246.768 201.493 243.083 198.903 245.498 198.71Z" fill="#FEFDF9"/>
<path d="M30.8967 194.194C33.5937 194.216 31.4985 196.701 30.0273 195.064L30.8967 194.194Z" fill="#FEFDF9"/>
<path d="M191.763 201.835C191.838 201.791 193.42 202.066 193.323 202.706C193.056 204.432 190.47 202.661 191.763 201.835Z" fill="#FEFDF9"/>
<path d="M179.973 207.736L181.533 208.257C180.649 210.191 177.997 208.666 179.973 207.736Z" fill="#FEFDF9"/>
<path d="M35.0587 202.528C35.1256 202.453 36.8716 202.587 36.9682 203.048C37.258 204.403 33.8996 203.83 35.0587 202.528Z" fill="#FEFDF9"/>
<path d="M247.926 186.903C249.598 186.925 247.8 188.636 247.577 188.636C246.96 188.636 246.106 186.88 247.926 186.903Z" fill="#FEFDF9"/>
<path d="M29.1668 201.136C30.1549 201.195 30.1178 203.011 28.8175 202.87L27.9482 201.999L29.1593 201.128L29.1668 201.136Z" fill="#E5E4E2"/>
<path d="M156.056 230.653C158.248 230.653 159.013 230.333 157.096 232.044L156.056 230.653Z" fill="#FEFDF9"/>
<path d="M266.992 193.845C268.544 193.845 267.527 195.988 266.992 195.928C266.791 195.906 265.223 193.845 266.992 193.845Z" fill="#FEFDF9"/>
<path d="M203.548 201.485C204.744 201.582 204.142 203.189 203.548 203.219C202.597 203.271 202.054 201.366 203.548 201.485Z" fill="#FEFDF9"/>
<path d="M167.148 194.543C167.594 194.595 168.567 196.5 166.799 196.277C165.32 196.091 166.769 194.498 167.148 194.543Z" fill="#FEFDF9"/>
<path d="M166.108 245.228C167.015 245.317 166.933 246.917 166.108 246.962C165.142 247.014 164.63 245.087 166.108 245.228Z" fill="#FEFDF9"/>
<path d="M38.1797 190.028C40.052 190.437 36.7829 192.766 36.9686 190.899C36.9835 190.772 38.1128 190.013 38.1797 190.028Z" fill="#FEFDF9"/>
<path d="M270.463 177.527C275.486 177.691 280.404 179.149 285.197 180.481C280.204 180.079 275.337 178.554 270.463 177.527Z" fill="#292829"/>
<path d="M171.999 40.3893C173.566 40.3149 177.289 42.1304 178.931 42.8223C183.649 44.8015 205.909 55.0249 208.747 57.4059C209.446 57.9862 210.181 58.5889 209.958 59.6604L193.494 89.6905L152.413 105.837V173.888L293.345 174.409C293.992 174.826 293.702 175.086 293.516 175.622C292.884 177.437 286.086 183.271 285.024 185.86C277.281 184.416 269.539 183.404 261.619 183.605C268.93 185.361 275.565 187.125 279.823 193.844C274.146 191.969 268.804 188.836 263.179 186.902C250.95 182.69 223.511 178.107 210.828 179.26C209.721 179.364 207.952 179.58 207.016 180.302C219.045 182.348 234.663 187.102 239.604 199.394C235.674 196.537 231.639 193.561 226.78 192.452C225.45 191.239 228.793 191.991 226.78 190.369C219.974 184.885 181.754 182.824 172.697 184.468C172.199 184.558 171.486 184.282 172.006 185.16C184.652 186.902 197.528 189.588 208.235 196.79C198.449 195.265 189.467 191.098 179.629 189.669C168.328 188.025 156.039 188.025 144.612 187.936C151.41 191.492 158.313 196.135 161.255 203.561C158.142 200.868 155.073 197.728 151.544 195.577C147.762 193.271 134.039 186.805 130.049 186.202C125.561 185.525 121.163 186.18 116.705 186.723C120.598 188.472 126.238 187.869 129.358 191.061C118.087 187.765 106.058 187.4 94.3406 186.544C87.8766 186.076 83.5077 185.875 77.0065 185.153C73.5367 184.774 69.4354 184.974 65.9135 184.803C70.1412 188.591 77.6083 191.574 78.7377 197.646C71.4935 189.26 59.0854 182.809 47.881 182.72L67.8156 193.658L41.989 187.236C43.1035 185.726 46.499 186.916 48.2302 186.544C37.5385 182.571 24.9967 182.184 13.5619 182.727C13.0567 182.601 7.11272 175.912 7.32076 174.394H148.773L149.293 107.213C135.198 111.685 121.326 117.533 107.514 123.009C105.01 123.352 103.74 122.541 102.484 120.405C99.9206 116.045 86.4872 83.0461 85.499 78.3957C84.8303 75.2558 85.4247 74.4373 88.0995 72.6665L171.999 40.3818V40.3893Z" fill="white"/>
<path d="M121.387 176.143C122.368 176.038 133.35 176.046 133.35 176.663L116.885 177.534C117.754 176.76 120.303 176.254 121.395 176.143H121.387Z" fill="#BCBCBC"/>
<path d="M163.68 176.142C166.823 175.926 169.906 176.298 172.871 177.355L157.446 177.875C158.821 177.206 162.268 176.239 163.687 176.142H163.68Z" fill="#BCBCBC"/>
<path d="M93.9934 181.693H99.5436L103.533 182.906C100.732 182.184 97.4335 182.884 94.6918 182.385C94.194 182.296 93.4807 182.571 94.0008 181.693H93.9934Z" fill="#BCBCBC"/>
<path d="M22.5762 178.567C25.9568 178.359 29.2854 178.932 32.458 180.129L22.5762 178.567Z" fill="#BCBCBC"/>
<path d="M257.979 178.918L263.009 179.789L254.509 179.96L257.979 178.918Z" fill="#BCBCBC"/>
<path d="M61.063 179.267L66.0856 179.787L57.9424 180.308L61.063 179.267Z" fill="#BCBCBC"/>
<path d="M81.1687 176.834C82.0826 176.752 83.8955 176.61 84.6385 177.183L75.7969 178.054C77.4017 177.63 79.5564 176.975 81.1687 176.841V176.834Z" fill="#BCBCBC"/>
<path d="M101.973 176.835C102.649 176.79 110.354 176.731 110.123 177.705L101.973 176.835Z" fill="#BCBCBC"/>
<path d="M197.307 179.268C198.622 178.971 201.683 179.633 203.028 180.139L196.616 179.968C196.252 179.789 197.262 179.283 197.307 179.276V179.268Z" fill="#94918F"/>
<path d="M151.203 106.008L151.716 173.881L150.504 174.402L149.984 106.529L151.203 106.008Z" fill="#D0C7F5"/>
<path d="M171.308 41.7822L176.16 42.8239L208.577 58.9699L193.672 87.7873C166.256 100.444 136.848 109.447 108.904 121.292L105.092 121.642L86.5469 75.2946C86.9927 74.3496 90.143 73.1814 91.2278 72.6904C116.705 61.0979 145.66 53.4639 171.315 41.7897L171.308 41.7822Z" fill="#4318FF"/>
<path d="M187.176 73.9154C185.816 74.4373 184.476 74.6205 183.156 74.465C181.854 74.3022 180.679 73.8023 179.631 72.9651C178.576 72.1093 177.752 70.9085 177.158 69.3626C176.579 67.854 176.399 66.438 176.618 65.1147C176.848 63.7656 177.36 62.5964 178.156 61.6072C178.952 60.6179 179.918 59.9053 181.054 59.4692C182.432 58.9401 183.686 58.8113 184.816 59.0827C185.957 59.3284 186.939 59.8812 187.76 60.7412C188.601 61.594 189.26 62.6443 189.739 63.8922C189.897 64.3019 190.022 64.7131 190.117 65.1257C190.222 65.5125 190.289 65.7968 190.316 65.9787L182.354 69.0352C182.899 69.7875 183.525 70.2205 184.231 70.3341C184.93 70.4291 185.67 70.3264 186.452 70.0262C187.346 69.683 188.189 69.039 188.98 68.0942L191.639 70.3432C191.094 71.1507 190.409 71.8729 189.585 72.5097C188.761 73.1466 187.958 73.6151 187.176 73.9154ZM181.097 65.9276L185.231 64.3404C185.024 63.8003 184.706 63.3883 184.276 63.1044C183.858 62.7947 183.286 62.7793 182.56 63.0581C182.038 63.2583 181.633 63.5954 181.345 64.0693C181.057 64.5432 180.974 65.1626 181.097 65.9276Z" fill="white"/>
<path d="M159.268 84.2454L152.297 66.0859L157.437 64.1127L163.028 70.4931C163.389 70.9316 163.747 71.3924 164.103 71.8753C164.46 72.3582 164.825 72.8376 165.2 73.3134L165.312 73.2705C165.272 72.666 165.223 72.0651 165.165 71.4678C165.107 70.8705 165.065 70.2882 165.039 69.721L164.813 61.2815L169.953 59.3082L176.924 77.4677L172.566 79.1406L170.507 73.7766C170.271 73.162 170.044 72.4586 169.825 71.6663C169.599 70.8555 169.383 70.0411 169.176 69.2231C168.968 68.4051 168.788 67.6838 168.633 67.0592L168.522 67.1021L168.686 72.0394L168.757 78.904L166.186 79.8906L161.646 74.7419L158.52 70.9413L158.408 70.9842C158.712 71.5516 159.06 72.2086 159.453 72.9551C159.847 73.7016 160.231 74.4517 160.606 75.2053C160.973 75.9404 161.275 76.6152 161.511 77.2298L163.57 82.5939L159.268 84.2454Z" fill="white"/>
<path d="M147.983 88.9609C146.176 89.6544 144.663 89.637 143.443 88.9086C142.234 88.1544 141.305 86.9298 140.654 85.2349L138.788 80.3738L136.944 81.0816L135.572 77.5056L137.631 76.5229L136.795 72.6765L140.762 71.1537L142.157 74.7856L145.341 73.563L146.778 77.3067L143.594 78.5292L145.427 83.3065C145.721 84.0702 146.092 84.5366 146.542 84.706C146.991 84.8753 147.44 84.8741 147.887 84.7025C148.11 84.6167 148.317 84.5159 148.508 84.4C148.71 84.2583 148.884 84.1274 149.03 84.0072L151.086 87.1926C150.775 87.4402 150.371 87.7235 149.874 88.0426C149.377 88.3617 148.746 88.6678 147.983 88.9609Z" fill="white"/>
<path d="M134.443 94.1584C133.549 94.5016 132.531 94.6893 131.389 94.7215C130.259 94.7279 129.22 94.5818 128.272 94.2833L129.259 90.5069C130.883 90.9519 132.197 90.9815 133.203 90.5954C133.706 90.4023 134.035 90.2013 134.19 89.9923C134.356 89.7575 134.386 89.5004 134.278 89.221C134.135 88.8485 133.754 88.6635 133.136 88.666C132.51 88.6498 131.789 88.6379 130.974 88.6302C130.348 88.614 129.701 88.542 129.032 88.4141C128.375 88.2604 127.766 87.9814 127.204 87.5771C126.643 87.1728 126.216 86.5889 125.923 85.8252C125.394 84.447 125.484 83.1515 126.194 81.9388C126.904 80.726 128.078 79.8051 129.717 79.1759C130.872 78.7327 131.934 78.5493 132.904 78.6258C133.885 78.6766 134.772 78.8169 135.566 79.0466L134.536 82.7112C133.89 82.5318 133.286 82.4325 132.723 82.4135C132.16 82.3946 131.664 82.4673 131.236 82.6317C130.417 82.9463 130.107 83.3643 130.307 83.8858C130.443 84.2397 130.802 84.4226 131.383 84.4344C131.976 84.4205 132.667 84.4116 133.456 84.4078C134.094 84.3982 134.747 84.4574 135.416 84.5853C136.103 84.7061 136.728 84.9686 137.289 85.3729C137.869 85.77 138.319 86.3877 138.641 87.2258C139.142 88.5295 139.051 89.825 138.37 91.1123C137.707 92.3923 136.398 93.4077 134.443 94.1584Z" fill="white"/>
<path d="M121.963 98.564L116.601 84.5952L121.406 82.7506L126.768 96.7194L121.963 98.564ZM118.339 81.9407C117.557 82.241 116.841 82.2699 116.192 82.0274C115.537 81.7663 115.069 81.2726 114.79 80.5462C114.512 79.8198 114.532 79.1495 114.852 78.5352C115.165 77.9023 115.712 77.4358 116.494 77.1355C117.277 76.8352 117.996 76.8156 118.651 77.0767C119.3 77.3192 119.764 77.8037 120.043 78.53C120.322 79.2564 120.305 79.936 119.992 80.5689C119.672 81.1832 119.121 81.6405 118.339 81.9407Z" fill="white"/>
<path d="M107.54 104.101L100.569 85.9414L105.375 84.0968L110.801 98.2333L117.674 95.5951L119.218 99.6181L107.54 104.101Z" fill="white"/>
</svg>
