<svg width="34" height="34" viewBox="0 0 34 34" fill="none" xmlns="http://www.w3.org/2000/svg">
<g clip-path="url(#clip0_70_1090)">
<path d="M0 19.8007V7.08328C0 3.17754 3.17758 -4.81771e-05 7.08333 -4.81771e-05H8.5V15.4275L0 19.8007ZM19.0032 -4.81771e-05H11.3333V15.7051L19.7115 24.0833H34V14.9954C33.9051 15.0974 33.8187 15.205 33.7195 15.3042L31.093 17.8755C29.7868 19.1519 28.0528 19.856 26.2083 19.856H26.1984C24.361 19.856 22.6284 19.1519 21.3237 17.874L18.7297 15.3354C16.6926 13.301 15.5833 10.6292 15.5833 7.7902C15.5833 4.9512 16.6898 2.2822 18.6972 0.276202C18.7949 0.178452 18.9026 0.0920352 19.0032 -0.00146484V-4.81771e-05ZM17.2536 25.6331L9.64608 18.0256L0 22.9896V26.918C0 30.8238 3.17758 34.0014 7.08333 34.0014H10.9792L17.255 25.6345L17.2536 25.6331ZM14.5194 34H26.9167C30.8224 34 34 30.8224 34 26.9166H19.8333L14.5208 34H14.5194Z" fill="#D0C7F5"/>
<path d="M34.0003 7.79318C34.0003 9.87568 33.19 11.8321 31.7181 13.3026L29.1114 15.854C28.3124 16.6374 27.2598 17.027 26.2087 17.027C25.1575 17.027 24.1063 16.6374 23.3059 15.854L20.7106 13.3139C19.2273 11.8321 18.417 9.87568 18.417 7.7946C18.417 5.71351 19.2273 3.75568 20.6992 2.28518C22.1697 0.813263 24.1262 0.00292969 26.2087 0.00292969C28.2912 0.00292969 30.2462 0.813263 31.7181 2.28518C33.19 3.75568 34.0003 5.7121 34.0003 7.79318ZM28.3337 7.78468C28.3337 6.61168 27.3817 5.65968 26.2087 5.65968C25.0357 5.65968 24.0837 6.61168 24.0837 7.78468C24.0837 8.95768 25.0357 9.90968 26.2087 9.90968C27.3817 9.90968 28.3337 8.95768 28.3337 7.78468Z" fill="#4318FF"/>
</g>
<defs>
<clipPath id="clip0_70_1090">
<rect width="34" height="34" fill="white"/>
</clipPath>
</defs>
</svg>
