<svg width="34" height="34" viewBox="0 0 34 34" fill="none" xmlns="http://www.w3.org/2000/svg">
<path d="M28.9965 27.6663C30.4695 27.6663 31.6635 28.8608 31.6635 30.3333C32.3997 30.3333 32.9965 30.93 32.9965 31.6663C32.9963 32.4023 32.3996 32.9993 31.6635 32.9993H2.33244C1.59649 32.9991 0.999656 32.4022 0.999433 31.6663C0.999433 30.9301 1.59636 30.3334 2.33244 30.3333C2.33244 28.8602 3.52705 27.6663 4.99943 27.6663H28.9965ZM13.8168 1.77662C15.8116 0.739163 18.1872 0.739186 20.1821 1.77662L30.1811 6.9856C31.0722 7.46367 31.8354 8.1501 32.4047 8.9856C33.1158 9.99482 33.1948 11.3197 32.6088 12.4065C31.9783 13.5988 30.7366 14.3418 29.3881 14.3333H4.61076C3.26031 14.3414 2.01745 13.5978 1.38811 12.4036C0.801901 11.3167 0.881637 9.99103 1.59221 8.98169C2.16152 8.14618 2.92472 7.45977 3.81584 6.98169L13.8168 1.77662Z" fill="#4318FF"/>
<path d="M7.66699 25.001H5V17H7.66699V25.001ZM14.7773 25.001H12.1113V17H14.7773V25.001ZM21.8887 25.001H19.2217V17H21.8887V25.001ZM28.998 17V25.001H26.332V17H28.998Z" fill="#D0C7F5"/>
</svg>
