<svg width="34" height="34" viewBox="0 0 34 34" fill="none" xmlns="http://www.w3.org/2000/svg">
<path d="M26.0485 4.87109H21.9355V30.9195H26.0485C27.8658 30.9173 29.6081 30.1944 30.8931 28.9093C32.1782 27.6243 32.9011 25.882 32.9033 24.0646V11.7259C32.9011 9.90858 32.1782 8.16629 30.8931 6.88123C29.6081 5.59617 27.8658 4.87327 26.0485 4.87109ZM27.4194 24.0646C27.1483 24.0646 26.8832 23.9842 26.6577 23.8336C26.4323 23.6829 26.2566 23.4688 26.1528 23.2183C26.049 22.9678 26.0219 22.6922 26.0748 22.4262C26.1277 22.1603 26.2583 21.916 26.45 21.7243C26.6417 21.5325 26.886 21.4019 27.152 21.3491C27.4179 21.2962 27.6936 21.3233 27.9441 21.4271C28.1946 21.5308 28.4087 21.7066 28.5593 21.932C28.71 22.1575 28.7904 22.4225 28.7904 22.6937C28.7904 23.0573 28.6459 23.406 28.3888 23.6631C28.1317 23.9202 27.783 24.0646 27.4194 24.0646ZM27.4194 18.5808C27.1483 18.5808 26.8832 18.5004 26.6577 18.3497C26.4323 18.1991 26.2566 17.985 26.1528 17.7344C26.049 17.4839 26.0219 17.2083 26.0748 16.9423C26.1277 16.6764 26.2583 16.4321 26.45 16.2404C26.6417 16.0486 26.886 15.9181 27.152 15.8652C27.4179 15.8123 27.6936 15.8394 27.9441 15.9432C28.1946 16.047 28.4087 16.2227 28.5593 16.4481C28.71 16.6736 28.7904 16.9387 28.7904 17.2098C28.7904 17.5734 28.6459 17.9221 28.3888 18.1792C28.1317 18.4363 27.783 18.5808 27.4194 18.5808ZM27.4194 13.0969C27.1483 13.0969 26.8832 13.0165 26.6577 12.8659C26.4323 12.7152 26.2566 12.5011 26.1528 12.2506C26.049 12.0001 26.0219 11.7244 26.0748 11.4585C26.1277 11.1925 26.2583 10.9482 26.45 10.7565C26.6417 10.5648 26.886 10.4342 27.152 10.3813C27.4179 10.3284 27.6936 10.3556 27.9441 10.4593C28.1946 10.5631 28.4087 10.7388 28.5593 10.9643C28.71 11.1897 28.7904 11.4548 28.7904 11.7259C28.7904 12.0895 28.6459 12.4382 28.3888 12.6954C28.1317 12.9525 27.783 13.0969 27.4194 13.0969Z" fill="#D0C7F5"/>
<path d="M12.3387 1H6.85484C5.03682 1 3.29327 1.7222 2.00774 3.00774C0.722204 4.29327 0 6.03682 0 7.85484L0 24.1452C0 25.0454 0.177306 25.9367 0.521793 26.7684C0.866281 27.6001 1.37121 28.3557 2.00774 28.9923C3.29327 30.2778 5.03682 31 6.85484 31H19.1935V7.85484C19.1935 6.95465 19.0162 6.06327 18.6718 5.23161C18.3273 4.39994 17.8223 3.64427 17.1858 3.00774C16.5493 2.37121 15.7936 1.86628 14.9619 1.52179C14.1303 1.17731 13.2389 1 12.3387 1ZM6.85484 26.0806H5.48387C5.12027 26.0806 4.77156 25.9362 4.51445 25.6791C4.25734 25.422 4.1129 25.0733 4.1129 24.7097C4.1129 24.3461 4.25734 23.9974 4.51445 23.7403C4.77156 23.4831 5.12027 23.3387 5.48387 23.3387H6.85484C7.21844 23.3387 7.56715 23.4831 7.82426 23.7403C8.08137 23.9974 8.22581 24.3461 8.22581 24.7097C8.22581 25.0733 8.08137 25.422 7.82426 25.6791C7.56715 25.9362 7.21844 26.0806 6.85484 26.0806ZM6.85484 20.5968H5.48387C5.12027 20.5968 4.77156 20.4523 4.51445 20.1952C4.25734 19.9381 4.1129 19.5894 4.1129 19.2258C4.1129 18.8622 4.25734 18.5135 4.51445 18.2564C4.77156 17.9993 5.12027 17.8548 5.48387 17.8548H6.85484C7.21844 17.8548 7.56715 17.9993 7.82426 18.2564C8.08137 18.5135 8.22581 18.8622 8.22581 19.2258C8.22581 19.5894 8.08137 19.9381 7.82426 20.1952C7.56715 20.4523 7.21844 20.5968 6.85484 20.5968ZM6.85484 15.1129H5.48387C5.12027 15.1129 4.77156 14.9685 4.51445 14.7114C4.25734 14.4542 4.1129 14.1055 4.1129 13.7419C4.1129 13.3783 4.25734 13.0296 4.51445 12.7725C4.77156 12.5154 5.12027 12.371 5.48387 12.371H6.85484C7.21844 12.371 7.56715 12.5154 7.82426 12.7725C8.08137 13.0296 8.22581 13.3783 8.22581 13.7419C8.22581 14.1055 8.08137 14.4542 7.82426 14.7114C7.56715 14.9685 7.21844 15.1129 6.85484 15.1129ZM6.85484 9.62903H5.48387C5.12027 9.62903 4.77156 9.48459 4.51445 9.22748C4.25734 8.97038 4.1129 8.62167 4.1129 8.25806C4.1129 7.89446 4.25734 7.54575 4.51445 7.28864C4.77156 7.03154 5.12027 6.8871 5.48387 6.8871H6.85484C7.21844 6.8871 7.56715 7.03154 7.82426 7.28864C8.08137 7.54575 8.22581 7.89446 8.22581 8.25806C8.22581 8.62167 8.08137 8.97038 7.82426 9.22748C7.56715 9.48459 7.21844 9.62903 6.85484 9.62903ZM13.7097 26.0806H12.3387C11.9751 26.0806 11.6264 25.9362 11.3693 25.6791C11.1122 25.422 10.9677 25.0733 10.9677 24.7097C10.9677 24.3461 11.1122 23.9974 11.3693 23.7403C11.6264 23.4831 11.9751 23.3387 12.3387 23.3387H13.7097C14.0733 23.3387 14.422 23.4831 14.6791 23.7403C14.9362 23.9974 15.0806 24.3461 15.0806 24.7097C15.0806 25.0733 14.9362 25.422 14.6791 25.6791C14.422 25.9362 14.0733 26.0806 13.7097 26.0806ZM13.7097 20.5968H12.3387C11.9751 20.5968 11.6264 20.4523 11.3693 20.1952C11.1122 19.9381 10.9677 19.5894 10.9677 19.2258C10.9677 18.8622 11.1122 18.5135 11.3693 18.2564C11.6264 17.9993 11.9751 17.8548 12.3387 17.8548H13.7097C14.0733 17.8548 14.422 17.9993 14.6791 18.2564C14.9362 18.5135 15.0806 18.8622 15.0806 19.2258C15.0806 19.5894 14.9362 19.9381 14.6791 20.1952C14.422 20.4523 14.0733 20.5968 13.7097 20.5968ZM13.7097 15.1129H12.3387C11.9751 15.1129 11.6264 14.9685 11.3693 14.7114C11.1122 14.4542 10.9677 14.1055 10.9677 13.7419C10.9677 13.3783 11.1122 13.0296 11.3693 12.7725C11.6264 12.5154 11.9751 12.371 12.3387 12.371H13.7097C14.0733 12.371 14.422 12.5154 14.6791 12.7725C14.9362 13.0296 15.0806 13.3783 15.0806 13.7419C15.0806 14.1055 14.9362 14.4542 14.6791 14.7114C14.422 14.9685 14.0733 15.1129 13.7097 15.1129ZM13.7097 9.62903H12.3387C11.9751 9.62903 11.6264 9.48459 11.3693 9.22748C11.1122 8.97038 10.9677 8.62167 10.9677 8.25806C10.9677 7.89446 11.1122 7.54575 11.3693 7.28864C11.6264 7.03154 11.9751 6.8871 12.3387 6.8871H13.7097C14.0733 6.8871 14.422 7.03154 14.6791 7.28864C14.9362 7.54575 15.0806 7.89446 15.0806 8.25806C15.0806 8.62167 14.9362 8.97038 14.6791 9.22748C14.422 9.48459 14.0733 9.62903 13.7097 9.62903Z" fill="#4318FF"/>
</svg>
