<svg width="34" height="34" viewBox="0 0 34 34" fill="none" xmlns="http://www.w3.org/2000/svg">
<g clip-path="url(#clip0_70_1102)">
<path d="M26.917 0H21.2503C17.3446 0 14.167 3.17758 14.167 7.08333V8.9335C15.3272 9.28058 16.4422 9.82175 17.4423 10.6038L21.6952 13.9343C24.1134 15.827 25.5003 18.6745 25.5003 21.743V25.5C25.5003 24.7166 26.1336 24.0833 26.917 24.0833H28.3337C29.1171 24.0833 29.7503 24.7166 29.7503 25.5C29.7503 26.2834 29.1171 26.9167 28.3337 26.9167H26.917C26.1336 26.9167 25.5003 26.2834 25.5003 25.5V27.625C25.5003 30.0985 24.5143 32.3439 22.9206 34H26.917C30.8227 34 34.0003 30.8224 34.0003 26.9167V7.08333C34.0003 3.17758 30.8227 0 26.917 0ZM21.2503 9.91667H19.8337C19.0502 9.91667 18.417 9.28342 18.417 8.5C18.417 7.71658 19.0502 7.08333 19.8337 7.08333H21.2503C22.0337 7.08333 22.667 7.71658 22.667 8.5C22.667 9.28342 22.0337 9.91667 21.2503 9.91667ZM28.3337 21.25H26.917C26.1336 21.25 25.5003 20.6167 25.5003 19.8333C25.5003 19.0499 26.1336 18.4167 26.917 18.4167H28.3337C29.1171 18.4167 29.7503 19.0499 29.7503 19.8333C29.7503 20.6167 29.1171 21.25 28.3337 21.25ZM28.3337 15.5833H26.917C26.1336 15.5833 25.5003 14.9501 25.5003 14.1667C25.5003 13.3832 26.1336 12.75 26.917 12.75H28.3337C29.1171 12.75 29.7503 13.3832 29.7503 14.1667C29.7503 14.9501 29.1171 15.5833 28.3337 15.5833ZM28.3337 9.91667H26.917C26.1336 9.91667 25.5003 9.28342 25.5003 8.5C25.5003 7.71658 26.1336 7.08333 26.917 7.08333H28.3337C29.1171 7.08333 29.7503 7.71658 29.7503 8.5C29.7503 9.28342 29.1171 9.91667 28.3337 9.91667Z" fill="#D0C7F5"/>
<path d="M19.9481 16.164L15.6981 12.8363C13.1283 10.8274 9.53842 10.826 6.96858 12.8363L2.71858 16.1626C0.99025 17.5155 0 19.5484 0 21.7414V27.6234C0 31.1382 2.86025 33.9984 6.375 33.9984H16.2917C19.8064 33.9984 22.6667 31.1382 22.6667 27.6234V21.7414C22.6667 19.5484 21.6764 17.5183 19.9481 16.164ZM14.1667 25.4998C14.1667 26.2818 13.532 26.9165 12.75 26.9165H9.91667C9.13467 26.9165 8.5 26.2818 8.5 25.4998V22.6665C8.5 21.8845 9.13467 21.2498 9.91667 21.2498H12.75C13.532 21.2498 14.1667 21.8845 14.1667 22.6665V25.4998Z" fill="#4318FF"/>
</g>
<defs>
<clipPath id="clip0_70_1102">
<rect width="34" height="34" fill="white"/>
</clipPath>
</defs>
</svg>
