<svg width="34" height="34" viewBox="0 0 34 34" fill="none" xmlns="http://www.w3.org/2000/svg">
<g clip-path="url(#clip0_70_1096)">
<path d="M24.0105 2.90417C22.1391 1.03133 19.6486 0 16.9995 0C14.3503 0 11.8612 1.03133 9.987 2.90417C6.12094 6.77025 6.12093 13.0617 9.99834 16.9391L13.5329 20.3958C14.4892 21.3307 15.7443 21.7983 16.9995 21.7983C18.2546 21.7983 19.5098 21.3307 20.466 20.3958L24.0105 16.9277C25.8834 15.0549 26.9161 12.5644 26.9161 9.91525C26.9161 7.26608 25.8834 4.77842 24.0105 2.90417ZM16.9995 14.1525C14.6521 14.1525 12.7495 12.2499 12.7495 9.9025C12.7495 7.55508 14.6521 5.6525 16.9995 5.6525C19.3469 5.6525 21.2495 7.55508 21.2495 9.9025C21.2495 12.2499 19.3469 14.1525 16.9995 14.1525Z" fill="#4318FF"/>
<path d="M10.53 21.4215L10.3571 22.6667H0.889571L1.53982 18.8757C1.88832 16.8428 3.28231 15.225 5.11547 14.5322C5.75155 16.1699 6.73046 17.6758 8.01821 18.965L10.53 21.4215ZM0.403656 25.5001H9.96187L8.78037 34.0001H5.66655C3.99773 34.0001 2.42098 33.2691 1.3429 31.9955C0.263407 30.7219 -0.197008 29.0474 0.0778241 27.4012L0.403656 25.5001ZM21.4581 25.5001L22.641 34.0001H11.6406L12.8221 25.5001H21.4581ZM33.1101 22.6667H23.9231L23.7162 21.1806L26.0141 18.9324C27.2876 17.6588 28.258 16.1642 28.8899 14.5351C30.7202 15.2292 32.1114 16.8442 32.4599 18.8757L33.1101 22.6667ZM32.6568 31.9969C31.5773 33.2691 30.002 34.0001 28.3331 34.0001H25.4998L24.3169 25.5001H33.596L33.9204 27.3956C34.1953 29.0488 33.7363 30.7233 32.6568 31.9969Z" fill="#D0C7F5"/>
</g>
<defs>
<clipPath id="clip0_70_1096">
<rect width="34" height="34" fill="white"/>
</clipPath>
</defs>
</svg>
