<svg width="34" height="34" viewBox="0 0 34 34" fill="none" xmlns="http://www.w3.org/2000/svg">
<g clip-path="url(#clip0_70_1083)">
<path d="M21 10C21 10.7911 20.7654 11.5645 20.3259 12.2223C19.8864 12.8801 19.2616 13.3928 18.5307 13.6955C17.7998 13.9983 16.9956 14.0775 16.2196 13.9231C15.4437 13.7688 14.731 13.3878 14.1716 12.8284C13.6122 12.269 13.2312 11.5563 13.0769 10.7804C12.9225 10.0044 13.0017 9.20017 13.3045 8.46926C13.6072 7.73836 14.1199 7.11365 14.7777 6.67412C15.4355 6.2346 16.2089 6 17 6C18.0609 6 19.0783 6.42143 19.8284 7.17157C20.5786 7.92172 21 8.93913 21 10Z" fill="#4318FF"/>
<path d="M24.0238 17.2609L19.6916 21.5548C19.3401 21.9092 18.9219 22.1905 18.4612 22.3825C18.0004 22.5745 17.5062 22.6733 17.007 22.6733C16.5079 22.6733 16.0137 22.5745 15.5529 22.3825C15.0921 22.1905 14.674 21.9092 14.3225 21.5548L9.99312 17.2836C8.13411 15.3671 7.09302 12.8029 7.08985 10.1329C7.08668 7.46286 8.12167 4.8962 9.97612 2.97527C10.8876 2.0336 11.979 1.28481 13.1857 0.773433C14.3923 0.262058 15.6894 -0.00146484 17 -0.00146484C18.3105 -0.00146484 19.6076 0.262058 20.8142 0.773433C22.0209 1.28481 23.1124 2.0336 24.0238 2.97527C25.8754 4.89207 26.9104 7.45301 26.9104 10.1181C26.9104 12.7832 25.8754 15.3441 24.0238 17.2609ZM22.6666 9.91693C22.6666 8.79617 22.3343 7.70058 21.7116 6.7687C21.089 5.83683 20.2039 5.11052 19.1685 4.68162C18.133 4.25272 16.9937 4.1405 15.8944 4.35915C14.7952 4.5778 13.7855 5.1175 12.993 5.91C12.2005 6.70249 11.6608 7.7122 11.4422 8.81142C11.2235 9.91065 11.3357 11.05 11.7646 12.0855C12.1935 13.1209 12.9198 14.0059 13.8517 14.6286C14.7836 15.2513 15.8792 15.5836 17 15.5836C18.5028 15.5836 19.9442 14.9866 21.0069 13.9239C22.0696 12.8612 22.6666 11.4198 22.6666 9.91693Z" fill="#4318FF"/>
<path d="M29.4002 13.0337C28.8831 15.3751 27.7234 17.5259 26.0512 19.2444L21.6907 23.5694C21.0772 24.1844 20.3486 24.6725 19.5464 25.0057C18.7443 25.339 17.8843 25.5109 17.0157 25.5117C16.1475 25.512 15.2878 25.3413 14.4856 25.0092C13.6835 24.6772 12.9546 24.1903 12.3407 23.5765L8.00142 19.2939C6.3512 17.5999 5.19303 15.4887 4.651 13.1867C3.73087 13.524 2.88955 14.0461 2.17892 14.7209C1.48624 15.3795 0.935617 16.1728 0.560915 17.0521C0.186214 17.9313 -0.0046426 18.8779 8.57535e-05 19.8337V25.6066C0.00306301 27.1385 0.501291 28.6283 1.42042 29.8538C2.33955 31.0794 3.63031 31.9748 5.10008 32.4066L9.16592 33.6816C9.84884 33.8941 10.5601 34.0016 11.2753 34.0003C11.9242 33.9995 12.5699 33.9109 13.1949 33.7368L21.3832 31.3144C22.1126 31.1145 22.8823 31.1145 23.6117 31.3144L26.9932 32.4477C27.8267 32.6505 28.6953 32.6616 29.5336 32.4799C30.3719 32.2982 31.158 31.9286 31.8327 31.399C32.5073 30.8693 33.053 30.1934 33.4284 29.4221C33.8039 28.6509 33.9993 27.8045 34.0001 26.9468V19.6524C33.9952 18.2128 33.5526 16.8087 32.7311 15.6265C31.9095 14.4444 30.7478 13.5401 29.4002 13.0337Z" fill="#D0C7F5"/>
</g>
<defs>
<clipPath id="clip0_70_1083">
<rect width="34" height="34" fill="white"/>
</clipPath>
</defs>
</svg>
